<?xml version="1.0" encoding="utf-8"?>
<!-- Generator: Adobe Illustrator 23.1.1, SVG Export Plug-In . SVG Version: 6.00 Build 0)  -->
<svg version="1.1" id="Layer_1" xmlns="http://www.w3.org/2000/svg" xmlns:xlink="http://www.w3.org/1999/xlink" x="0px" y="0px"
	 viewBox="0 0 209.3 202.7" style="enable-background:new 0 0 209.3 202.7;" xml:space="preserve">
<style type="text/css">
	.st0{fill:#FCFCFC;}
	.st1{fill:#3C3D3B;}
</style>
<path class="st0" d="M162.2-82.7H81.1c-1.8,0-3.5-1.1-3.5-2.5v-10.6c0-1.4,1.6-2.5,3.5-2.5h81.3c1.8,0,3.5,1.1,3.5,2.5v10.6
	C165.9-84,164.3-82.7,162.2-82.7z"/>
<path class="st0" d="M163.2-150.3H80c-1.4,0-2.6-1.5-2.6-3.3v-9c0-1.8,1.3-3.3,2.6-3.3h83.2c1.4,0,2.6,1.5,2.6,3.3v8.8
	C165.9-151.9,164.6-150.3,163.2-150.3z"/>
<path class="st0" d="M162.7-117.4H80.5c-1.6,0-3.1-1.4-3.1-2.9v-9.6c0-1.6,1.4-2.9,3.1-2.9h82.2c1.6,0,3.1,1.4,3.1,2.9v9.6
	C165.9-118.8,164.4-117.4,162.7-117.4z"/>
<circle class="st0" cx="55.4" cy="-158" r="12"/>
<circle class="st0" cx="55.4" cy="-125.2" r="12"/>
<circle class="st0" cx="55.4" cy="-90.6" r="12"/>
<path class="st0" d="M120.5,40.6v27.7c0,0.7,0.5,1.2,1.2,1.2h27.7c0.7,0,1.2-0.5,1.2-1.2v-2.4c0-0.4-0.2-0.8-0.4-1l-25.1-25.1
	c-0.2-0.2-0.5-0.4-0.8-0.4h-2.5C121.1,39.4,120.5,39.9,120.5,40.6z"/>
<path class="st0" d="M112.3,40.2v30.3c0,2,0.7,4,2.2,5.3c1.1,0.9,2.6,1.7,4.8,1.7h30.5c0.4,0,0.8,0.4,0.8,0.8v75.4
	c0,3-2.4,5.4-5.4,5.4H65.1c-3,0-5.4-2.4-5.4-5.4V44.8c0-3,2.4-5.4,5.4-5.4h46.3C111.9,39.4,112.3,39.8,112.3,40.2z"/>
<path class="st1" d="M124,106H86.4c-2.1,0-3.8-1.7-3.8-3.8v0c0-2.1,1.7-3.8,3.8-3.8H124c2.1,0,3.8,1.7,3.8,3.8v0
	C127.8,104.3,126.1,106,124,106z"/>
<path class="st1" d="M124,121.4H86.4c-2.1,0-3.8-1.7-3.8-3.8v0c0-2.1,1.7-3.8,3.8-3.8H124c2.1,0,3.8,1.7,3.8,3.8v0
	C127.8,119.7,126.1,121.4,124,121.4z"/>
<path class="st1" d="M124,136.7H86.4c-2.1,0-3.8-1.7-3.8-3.8l0,0c0-2.1,1.7-3.8,3.8-3.8H124c2.1,0,3.8,1.7,3.8,3.8l0,0
	C127.8,135,126.1,136.7,124,136.7z"/>
</svg>
