<?xml version="1.0" encoding="utf-8"?>
<!-- Generator: Adobe Illustrator 23.0.3, SVG Export Plug-In . SVG Version: 6.00 Build 0)  -->
<svg version="1.1" id="Layer_1" xmlns="http://www.w3.org/2000/svg" xmlns:xlink="http://www.w3.org/1999/xlink" x="0px" y="0px"
	 viewBox="0 0 172.9 167" style="enable-background:new 0 0 172.9 167;" xml:space="preserve">
<style type="text/css">
	.st0{fill:#5C9CD6;stroke:#3C3D3B;stroke-width:0.4;stroke-miterlimit:10;}
	.st1{fill:#37BCDB;stroke:#3C3D3B;stroke-width:0.4;stroke-miterlimit:10;}
	.st2{fill:#70E073;stroke:#3C3D3B;stroke-width:0.4;stroke-miterlimit:10;}
	.st3{fill:#F7DFC4;stroke:#3C3D3B;stroke-width:0.4;stroke-miterlimit:10;}
	.st4{fill:#3C3D3B;stroke:#FFFFFF;stroke-width:4;stroke-miterlimit:10;}
	.st5{fill:none;}
	.st6{fill:#FFFFFF;}
	.st7{font-family:'HelveticaNeue-Bold';}
	.st8{font-size:30px;}
	.st9{fill:none;stroke:#3C3D3B;stroke-width:0.25;stroke-miterlimit:10;}
	.st10{fill:#3C3D3B;}
	.st11{fill:#2898BF;stroke:#000000;stroke-miterlimit:10;}
</style>
<g>
	<circle class="st0" cx="-159.6" cy="-75.1" r="41.4"/>
	<g>
		<path class="st1" d="M-179.7-40.4C-179.7-40.4-179.7-40.3-179.7-40.4c0,0.1,0.1,0.1,0.2,0.1L-179.7-40.4z"/>
		<path class="st2" d="M-182.3-98.8l-0.1-0.2c0.7-0.1,0.7-0.6,1.3-0.8c0.6-0.2,0.4,0,1,0c0.5,0,0.8,0.3,1.3,0.1
			c-0.1,0.2-0.3,0.4-0.6,0.6c-0.4,0.3-0.9,0.6-1.4,0.8C-181.4-98.2-182-98.3-182.3-98.8z"/>
		<path class="st2" d="M-174-61.8c0,0.4-0.2,0.7-0.4,1c-0.8,1.4-1.3,2.9-1.4,4.5c-0.1,1.5,0,3.4-1.4,4.2c-0.8,0.4-1.8,0.3-2.3,1.1
			c-0.2,0.2-0.2,0.5-0.3,0.7c-0.3,1.2-0.7,2.4-1,3.6c-0.4,0-0.9-0.1-1.3-0.1c0.5,0.2,0.8,0.8,0.5,1.3c-0.5-0.3-1.1,0-1.4,0.5
			s-0.2,1.1-0.1,1.6c0.4,1.6,1.8,2.8,3.3,3.2c-0.3,0.5-1.1,0.3-1.6-0.1c-3.6-2.5-6.4-6.2-7.6-10.4c-0.4-1.5-0.7-3.1-1.6-4.3
			c-0.7-1.1-1.8-1.9-2.5-2.9c-1-1.5-1.2-3.6-2.4-5c-0.7-0.8-1.7-1.8-1.1-2.7c0.2-0.4,0.7-0.7,0.5-1.1c-0.1-0.1-0.2-0.2-0.3-0.3
			c-0.4-0.4-0.1-1.1,0.1-1.6c0.3-0.9,0.3-2,0.2-3c-1-0.9-1.8-2-2.3-3.2c-0.3-0.7-0.7-1.7-1.5-1.7c-0.2-0.6-0.4-1.2-0.6-1.7
			c-0.1,0.2-0.3,0.3-0.5,0.4c0.6-9.5,4.5-18.1,10.4-24.8c0.1-0.1,0.3-0.1,0.4-0.2c1.4-0.8,2.5-2.1,3.9-3c0.3-0.2,0.6-0.4,0.9-0.3
			c0.3,0,0.7,0.4,0.5,0.7c0,0.1-0.2,0.2-0.3,0.3c-1.6,1.4-3.4,2.6-5.2,3.5c-0.2,0.1-0.5,0.2-0.6,0.5c-0.2,0.4,0.1,0.9,0.5,1
			s0.9,0.1,1.3,0c-0.3,0.5-0.5,1.2-0.3,1.7c0.4,0,0.5-0.5,0.6-0.9c0.5-1.5,2.8-2,2.6-3.6c0.6,0.3,1.3-0.4,1.6-1
			c0.4-0.6,1.2-1.2,1.7-0.7c0,0.3,0.1,0.6,0.1,0.9c0.8-0.2,1.7-0.4,2.5-0.6c-0.5,0.3-0.6,1-0.4,1.5c0.3,0.5,0.9,0.8,1.5,0.6
			c0,0.4-0.4,0.8-0.8,1c-0.9,0.7-1.9,1.4-2.9,1.7l0.2,0.5h-0.1c-0.7,0.1-1.4-0.4-2.1-0.3c-0.4,0.1-1,0.1-1.2,0.5
			c0,0.1-0.2,0.8-0.1,0.8c0.4-0.2,0.8-0.5,1.2-0.7c0.1,0.3,0.1,0.7,0.1,1c0.5,0,1,0.1,1.4,0.3c-0.4,1-1.6,1.7-2.7,1.6
			c0-0.3,0-0.7,0-1c-0.9-0.1-1.7,0.7-2.1,1.5c-0.5,0.8-0.8,1.7-1.6,2.2c-0.5,0.3-1,0.4-1.5,0.7c-0.5,0.3-1,0.8-0.9,1.3
			c0,0.3,0.2,0.5,0.2,0.8c0,0.5-0.6,0.7-1,1.1c-0.7,0.6-0.8,1.6-1.6,2.1c-0.5,0.4-1.2,0.4-1.8,0.5c-0.6,0.2-1.2,0.8-1,1.4
			c-0.3,0.1-0.7-0.1-0.7-0.4c-1.1,2.1-1.8,4.4-2.1,6.8c0.5,0.4,1.1-0.5,1.2-1.1s0.7-1.5,1.2-1.1c-0.1,0.9-0.2,1.8-0.4,2.8
			c0,0.2,0,0.4,0,0.5c0.1,0.2,0.3,0.3,0.5,0.4c0.5,0.4,0.4,1.1,0.4,1.8c0,0.8,0.3,1.5,0.7,2.2c0-0.1-0.1-0.3-0.1-0.4
			c0.7,0.1,1.5-0.1,2-0.6c0.3-0.3,0.5-0.6,0.9-0.7s0.8,0,1.2,0.1c1.2,0.3,2.5,0.7,3.3,1.6c0.4,0.5,0.7,1.1,1.1,1.5
			c1.1,0.9,2.9,0.5,3.9,1.5c0.8,0.8,0.6,0.8,0.4,1.9c-0.5-0.3-1.1,0.9-0.7,1.5c0.3-0.3,0.4,0.2,0.9,0.2c0.4,0,0.8,0.6,0.5,0.9
			c0.7-1,2.6-0.6,2.9,0.6c1.1,0.1,2.1,0.1,3.2,0.2C-177.2-63.5-174-63.4-174-61.8z"/>
		<path class="st2" d="M-180.4-105.2c-0.4,0.2-1,0-1.1-0.5c-0.2-0.4,0.1-1,0.6-1.1c0.3-0.1,0.7,0,0.7-0.3c0-0.1,0-0.2,0-0.3
			c0-0.5,0.4-0.9,0.9-1.1c0.5-0.1,1,0,1.5,0.1c0.2,0.4,0.2,0.8,0.1,1.2c-0.3,0-0.7,0-1,0c0,0.6,0,1.3-0.6,1.5
			c-0.5,0.2-1.1-0.2-1.5,0.2"/>
		<path class="st2" d="M-175.1-110.9c0.9-0.5,1.7-1.2,2.7-1.6c1.6-0.8,3.5-0.9,5.3-0.9c4.1-0.1,8.2-0.3,12.3-0.4
			c-0.9,0.5-1.9,1-2.8,1.6c-0.8,0.4-1.7,0.9-2.5,0.6c0,0.7,0.6,1.3,1.3,1.3c-1.7,1-4,0-5.8,0.8c-0.7,0.4-1.3,1.1-2.2,1.2
			c-0.5,0.1-1-0.1-1.4,0.1c-0.8,0.2-1.3,0.9-1.9,1.5c-0.7,0.6-1.7,1.1-2.5,0.8c-0.9-0.3-1.3-1.6-0.6-2.2c0.3-0.3,0.8-0.3,1.2-0.6
			c0.4-0.2,0.7-0.8,0.4-1.1c-0.1-0.1-0.4-0.2-0.5-0.4c-0.1-0.2-0.1-0.4-0.2-0.6c-0.4-0.7-1.6,0.3-2.4,0"/>
		<path class="st2" d="M-162.6-107.5c0.6-0.1,1-0.5,1.5-0.7s1.1-0.4,1.6-0.1c0.2,0.4-0.3,0.7-0.7,0.9c-0.7,0.3-1.5,0.3-2.3,0.2"/>
		<path class="st2" d="M-129.2-103.4c-0.2,0-0.3,0-0.5,0c-0.7-0.2-1.2-0.7-1.8-1.1c-1.4-0.9-3.3-1-4.8-0.3c0.4-0.5,0.5-1.2,0.5-1.8
			l-0.2,0.1c-2.5-1.4-5.3-2.9-8-1.9c-0.6,0.2-1.2,0.6-1.8,0.8c-0.7,0.2-1.4,0.3-2,0.7c-0.6,0.4-0.9,1.3-0.4,1.8
			c0.4,0.4,1.1,0.3,1.7,0.4c0.6,0.1,1.2,0.6,0.9,1.1c-2.6,1.2-5.1,2.4-7.7,3.6c1.2,0.4,2,1.7,1.7,2.9c-0.9,0.2-1.7-0.4-2.6-0.4
			c-1.3-0.1-2.5,1.1-2.5,2.3c0,1.3,1.1,2.4,2.4,2.4c0.9,0,1.9-0.6,2.8-0.3c0-0.9,0.6-1.6,1.2-2.2c1.2-1.2,2.9-2.3,4.4-1.7
			c0.5,0.2,1,0.5,1.4,0.9c0.9,0.7,1.9,1.5,2.8,2.3c0.3-0.3,0.6-0.6,0.9-0.9c0.5,0.5,1,1.1,1.6,1.6c0.3-0.2,0.5-0.3,0.8-0.5
			c0.2,0.5,0.4,1,0.6,1.5c0.1-0.5,0.1-1.1,0.2-1.6c0.6,0,1.3,0,1.8-0.2c0.6-0.3,1-0.9,0.7-1.5c-0.1-0.3-0.4-0.6-0.5-0.9
			c-0.1-0.7,0.8-1.1,1.4-0.8c0.6,0.3,0.9,1,1.2,1.6c0.1-0.6,0.3-1.3,0.4-1.9c0.6,1.5,1.4,3,2.5,4.2c-1.9-0.4-3.9-0.2-5.7,0.6
			c0.6,0.8,1.6,1.3,2.5,1.2c0.4,0,0.9-0.1,1.3,0.2c0.3,0.2,0.3,0.6,0.4,0.9c0.2,0.9,0.3,1.8,0.4,2.7c-1-0.8-2.5-0.7-3.8-0.8
			c-1.3,0-2.9-0.4-3.4-1.6c-0.5,0.6-0.8,1.4-0.6,2.2c-1.4-0.3-2.9-0.9-3.3-2.2c-1.1,0.4-2.4-0.3-2.7-1.4c-0.1-0.4-0.1-0.9-0.5-1.1
			c-0.2-0.1-0.5-0.1-0.7-0.1c-2,0.2-4.1,0.5-6.1,0.7c-1.1,0.1-2.2,0.3-3.2,0.8s-1.8,1.6-1.6,2.7c-1.9,1.1-3.4,2.7-4.5,4.6
			c-0.3,0.6-0.6,1.2-0.5,1.9c0.1,0.5,0.4,0.9,0.5,1.4c0.2,0.9-0.3,1.7-0.5,2.5c-0.6,2.4,1.2,4.7,2.9,6.5c0.8,0.8,1.7,1.8,2.9,1.8
			c0.7,0,1.4-0.3,2.1-0.6c1.9-0.8,4-1.1,6.1-1c-0.5,0.4,0,1.2,0.6,1.3c0.6,0.1,1.2-0.1,1.8,0.1c1.3,0.5,1.1,2.3,0.5,3.6
			c0.3-0.1,0.6-0.1,0.9-0.2c-0.2,0.4-0.3,0.8-0.5,1.2c1.8,0.2,2.4,2.5,2,4.3c-0.4,1.7-1.4,3.3-1.5,5.1c0,1,0.3,1.9,0.6,2.8
			c0.8,2.4,1.5,4.7,2.3,7.1c2.1,0.3,3.3-2.4,5.3-3.3c0.7-0.3,1.6-0.4,2.2-0.9c0.6-0.5,0.4-1.8-0.3-1.8c1-0.1,1.8-1,1.8-2
			c0-0.3,0-0.5,0-0.8c0.1-0.4,0.3-0.7,0.5-1.1c1.5-2.1,2.5-4.6,3.4-7c0.3-0.6,0.5-1.3,0.8-1.9c1-2.4,1.9-4.8,2.9-7.2
			c0.4-0.9,0.7-1.9,1.1-2.8c-0.5,0.9-1.9,0.7-2.6,0.1c-0.8-0.6-1.2-1.6-1.8-2.4c-0.5-0.7-1.2-1.3-1.5-2.1c-0.1-0.5-0.1-1-0.2-1.5
			c-0.2-1.1-0.9-2-1.4-3s-0.7-2.2-0.1-3.1c2,3.4,3.8,7,5.4,10.6c0.2-0.6,0.6-1.1,1.1-1.3c0.4-0.2,0.8-0.3,1.2-0.5
			c1.1-0.5,1.8-1.6,1.8-2.8c0-1.2-0.7-2.3-1.8-2.8c-0.5-0.2-1.1-0.3-1.6-0.6c-0.5-0.3-0.9-1-0.6-1.5s1-0.5,1.5-0.2s0.9,0.7,1.3,1
			c0.3,0.2,0.7,0.4,1.1,0.6c2,1.1,2.5,3.7,2.9,6c0.2,1.2,0.5,2.4,0.8,3.6c0-0.3,0-0.5,0-0.8C-118.1-86.1-122.4-96-129.2-103.4z
			 M-125.5-89.7c-0.3,0-0.5-0.2-0.7-0.4c-0.4-0.3-0.7-0.6-0.8-1.1s0.1-1.1-0.2-1.6c-0.1-0.2-0.4-0.4-0.6-0.5c-0.5-0.4-0.9-1-1-1.6
			c-0.1-0.6,0.1-1.3,0.6-1.4c0.3,0,0.6,0.1,0.7,0.4l-0.4,0.2c0.6,0.1,0.9,1.1,0.5,1.5c-0.1,0.1-0.2,0.1-0.2,0.2s0,0.1,0.1,0.2
			c0.4,0.4,1,0.6,1.5,0.9s1,0.8,1,1.4c-0.2,0.1-0.3,0.1-0.5,0.2c-0.2,0.2,0,0.5,0.2,0.7s0.4,0.4,0.4,0.6
			C-124.9-89.9-125.2-89.7-125.5-89.7z"/>
		<path class="st2" d="M-125.2-60.9l-0.7,0.5c0.2,0.8-0.2,1.8-1,2.1c-0.4,0.2-1,0.2-1.1,0.7c-0.1,0.4,0.2,0.7,0.2,1.1
			c0.1,0.6-0.5,1.1-1,1.6c-0.4,0.5-0.7,1.4-0.1,1.7c0.1,0.1,0.3,0.1,0.4,0.1c0.6,0.1,1.3,0.1,1.8-0.3c1.5-1,0.1-3.9,1.5-4.9
			c0.2-0.2,0.5-0.3,0.6-0.5C-124.2-59.5-125.5-60.2-125.2-60.9z"/>
	</g>
</g>
<path class="st3" d="M-176.6-5.3c-0.4-0.6-0.1-1.4,0.6-1.6c1.7-0.5,4.6-0.3,5.2-0.9c0.8-0.8,16.4,3.3,19.2-1
	c2.9-4.7-18-7.3-22.5-7.6c-4.6-0.3-8.8-2.5-17,0s-16,11.8-17.7,13.1s-4.4,4.1-4.4,5.5s0.3,7,18.2,8.7c12.2,1.2,10.3,0.9,14.7,0.7
	c4.4-0.1,16.4,1.8,20,1.8s5.8-2.2,9-3.6s5.6-1.4,11-4.5s17.9-11,17.9-12.6s-6.9-3.2-13.9,0.6s-4,1.9-15.2,4.6s-6.4,2.9-14.8,2.9
	C-174.1,0.9-174.7-2.2-176.6-5.3z"/>
<path class="st3" d="M-172.7-4.2c-0.4-0.7-0.1-1.7,0.7-1.9c2-0.6,5.2-1.4,6.1-1.1c1.4,0.5,19.4,4.7,22.4-1.2s-21-8.8-26.4-9.2
	c-5.3-0.4-10.3-3-19.9,0c-9.7,3-18.7,14.2-20.7,15.8s-5.2,4.9-5.2,6.6s0.3,8.5,21.2,10.5c14.3,1.4,12.1,1,17.2,0.9
	c5.2-0.2,19.2,2.2,23.4,2.2s6.8-2.7,10.6-4.4s6.5-1.7,12.9-5.4c6.4-3.7,20.9-13.2,20.9-15.2s-6.2-6.1-14.3-1.5
	c-8.2,4.6-6.6,4.5-19.7,7.8s-7.4,3.5-17.3,3.5C-169.7,3.2-170.5-0.4-172.7-4.2z"/>
<path class="st4" d="M81.9,89.8c2.5-2.4,6.5-2.4,9.1,0l4,3.8l29.3,28.2c4.2,4,11.2,1.1,11.2-4.8V20c0-3.6-2.9-6.6-6.6-6.6H44
	c-3.6,0-6.6,2.9-6.6,6.6v96.9c0,5.8,7,8.7,11.2,4.8l29.3-28.2L81.9,89.8z"/>
<rect x="0.5" y="140.8" class="st5" width="173.9" height="34.5"/>
<text transform="matrix(1 0 0 1 13.3069 166.4882)" class="st6 st7 st8">Bookmark</text>
<text transform="matrix(1 0 0 1 13.3069 166.4882)" class="st9 st7 st8">Bookmark</text>
<g id="_x31_ByqND.tif">
	
		<image style="overflow:visible;enable-background:new    ;" width="333" height="335" id="Layer_0_1_" xlink:href="9828015A5506B23A.png"  transform="matrix(0.4185 0 0 0.4185 -300.5015 157.9024)">
	</image>
</g>
<polygon class="st10" points="55.6,-82.7 46.1,-73.3 67.6,-51.9 109.1,-93.4 99.6,-102.8 67.6,-70.6 "/>
<rect x="-8" y="272" class="st11" width="180.9" height="189"/>
</svg>
