<?xml version="1.0" encoding="utf-8"?>
<!-- Generator: Adobe Illustrator 23.0.3, SVG Export Plug-In . SVG Version: 6.00 Build 0)  -->
<svg version="1.1" id="Layer_1" xmlns="http://www.w3.org/2000/svg" xmlns:xlink="http://www.w3.org/1999/xlink" x="0px" y="0px"
	 viewBox="0 0 172.9 167" style="enable-background:new 0 0 172.9 167;" xml:space="preserve">
<style type="text/css">
	.st0{fill:none;stroke:#3C3D3B;stroke-width:2.5;stroke-miterlimit:10;}
	.st1{fill:none;}
	.st2{fill:#FFFFFF;}
	.st3{font-family:'HelveticaNeue-Bold';}
	.st4{font-size:30px;}
	.st5{opacity:0;fill:none;stroke:#3C3D3B;stroke-width:0.25;stroke-miterlimit:10;enable-background:new    ;}
</style>
<path class="st0" d="M81.9,89.8c2.5-2.4,6.5-2.4,9.1,0l4,3.8l29.3,28.2c6.9,6.3,10.5,7.7,11.2-4.8V20c0-3.6-2.9-6.6-6.6-6.6H44
	c-3.6,0-6.6,2.9-6.6,6.6v96.9c0,10.8,4.9,11.5,11.2,4.8l29.3-28.2L81.9,89.8z"/>
<rect x="0.5" y="140.8" class="st1" width="173.9" height="34.5"/>
<text transform="matrix(1 0 0 1 13.3069 166.4882)" class="st2 st3 st4">Bookmark</text>
<text transform="matrix(1 0 0 1 13.3069 166.4882)" class="st5 st3 st4">Bookmark</text>
</svg>
