<?xml version="1.0" encoding="utf-8"?>
<!-- Generator: Adobe Illustrator 23.0.3, SVG Export Plug-In . SVG Version: 6.00 Build 0)  -->
<svg version="1.1" id="Layer_1" xmlns="http://www.w3.org/2000/svg" xmlns:xlink="http://www.w3.org/1999/xlink" x="0px" y="0px"
	 viewBox="0 0 172.9 167" style="enable-background:new 0 0 172.9 167;" xml:space="preserve">
<style type="text/css">
	.st0{fill:none;}
	.st1{fill:#FFFFFF;}
	.st2{font-family:'HelveticaNeue-Bold';}
	.st3{font-size:30px;}
	.st4{fill:#FFFFFF;stroke:#3C3D3B;stroke-width:0.25;stroke-miterlimit:10;}
	.st5{fill:#FFFFFF;stroke:#3C3D3B;stroke-width:1.4312;stroke-miterlimit:10;}
</style>
<rect x="-1.5" y="141.1" class="st0" width="173.9" height="34.5"/>
<text transform="matrix(1 0 0 1 6.9359 166.8098)" class="st1 st2 st3">Edit Article</text>
<text transform="matrix(1 0 0 1 6.9359 166.8098)" class="st4 st2 st3">Edit Article</text>
<polygon class="st5" points="129.1,42.5 68,113.5 47.3,95.6 81.6,55.7 81.6,55.7 89.2,46.8 108.4,24.6 "/>
<path class="st5" d="M127.6,12.6l10.6,9c2.7,2.3,3.1,6.8,0.6,9.5l-6.7,7.9l-20.7-17.9l6.7-7.9C120.4,10.5,124.6,10,127.6,12.6
	L127.6,12.6z"/>
<polygon class="st5" points="37.4,128 44.5,100.2 63.9,117.1 "/>
<polygon class="st5" points="113.8,18.3 134.7,35.9 132.1,39.1 111.4,21.1 "/>
<polygon class="st5" points="47.3,95.6 44.5,100.2 63.9,117.1 68,113.5 "/>
<rect x="118" y="18.2" transform="matrix(0.6539 -0.7566 0.7566 0.6539 17.5308 102.0205)" class="st5" width="4.6" height="27.4"/>
</svg>
