<?xml version="1.0" encoding="utf-8"?>
<!-- Generator: Adobe Illustrator 23.0.3, SVG Export Plug-In . SVG Version: 6.00 Build 0)  -->
<svg version="1.1" id="Layer_1" xmlns="http://www.w3.org/2000/svg" xmlns:xlink="http://www.w3.org/1999/xlink" x="0px" y="0px"
	 viewBox="0 0 626.3 626.3" style="enable-background:new 0 0 626.3 626.3;" xml:space="preserve">
<style type="text/css">
	.st0{fill:#3C3D3B;}
	.st1{fill:#FAFAFA;stroke:#3C3D3B;stroke-miterlimit:10;}
</style>
<path class="st0" d="M864.8,31.1h-157c-2.8,0-5-2.3-5-5v-13c0-2.8,2.3-5,5-5h157c2.8,0,5,2.3,5,5v13
	C869.8,28.8,867.5,31.1,864.8,31.1z"/>
<path class="st0" d="M865.4,72.7H746c-2.4,0-4.4-2-4.4-4.4V54.1c0-2.4,2-4.4,4.4-4.4h119.4c2.4,0,4.4,2,4.4,4.4v14.2
	C869.8,70.7,867.8,72.7,865.4,72.7z"/>
<path class="st0" d="M866.1,116.9h-83.7c-2,0-3.7-1.7-3.7-3.7V97.6c0-2,1.7-3.7,3.7-3.7h83.7c2,0,3.7,1.7,3.7,3.7v15.6
	C869.8,115.2,868.1,116.9,866.1,116.9z"/>
<path class="st0" d="M1104.8,44.9h-157c-2.8,0-5-2.3-5-5v-13c0-2.8,2.3-5,5-5h157c2.8,0,5,2.3,5,5v13
	C1109.9,42.7,1107.6,44.9,1104.8,44.9z"/>
<path class="st0" d="M1105.5,86.5H986.1c-2.4,0-4.4-2-4.4-4.4V67.9c0-2.4,2-4.4,4.4-4.4h119.4c2.4,0,4.4,2,4.4,4.4v14.2
	C1109.9,84.5,1107.9,86.5,1105.5,86.5z"/>
<path class="st0" d="M837.7,440.7H754c-2,0-3.7-1.7-3.7-3.7v-15.6c0-2,1.7-3.7,3.7-3.7h83.7c2,0,3.7,1.7,3.7,3.7V437
	C841.4,439.1,839.7,440.7,837.7,440.7z"/>
<g>
	<path class="st0" d="M821.5,582.5c1.8,1.9,2.7,4.4,2.7,7v75.9c0,4.6,5.5,6.9,8.8,3.7l21.2-24.3c2.8-3.4,4.4-5.1,4.4-8.5v-46.8
		c0-2.6,1-5.1,2.7-7l60.8-66c4.6-4.9,1-13-5.7-13h-150c-6.7,0.1-10.2,8.1-5.7,13.1L821.5,582.5z"/>
</g>
<g>
	<path id="Path_10" class="st1" d="M589.7,473.5c-2.7,7.8-5,15.5-7.8,25.6C522.6,432.4,466.4,368,407,303.6
		C463.6,252,522.6,203.1,579.2,152c5.5,7.8,9.1,16.4,10.5,25.6C589.7,278,589.7,375.8,589.7,473.5z"/>
	<path id="Path_11" class="st1" d="M37.1,177.6c2.3-6.9,4.6-13.7,7.8-20.6c0-2.7,2.7-2.7,2.7-5c56.6,51.6,115.6,100.5,172.2,151.6
		c-59.4,64.4-116,131.5-175.4,195.9c-2.7-7.8-5-15.5-7.8-25.6C37.1,375.8,37.1,278,37.1,177.6z"/>
	<path id="Path_12" class="st1" d="M247.6,324.6l54.3,46.1c10.5,7.8,17.8,7.8,25.6,0l53.9-46.1c59.4,66.7,118.3,131.1,177.7,198.2
		c-1.4,0-2.7,0.9-2.7,2.3l0,0c-9.6,5-20.1,7.8-31.1,7.8H108.8c-12.8,0-25.1-3.2-36.1-10.5C129.3,455.7,188.7,391.3,247.6,324.6z"/>
	<path id="Path_13" class="st1" d="M554.1,129.2c-79.9,69.4-159.4,138.8-239.3,211c-79.9-69.9-159.4-139.3-239.3-211
		c8.7-5,18.3-7.8,28.3-7.8H523C534,118.7,545.4,121.9,554.1,129.2z"/>
</g>
</svg>
