<?xml version="1.0" encoding="utf-8"?>
<!-- Generator: Adobe Illustrator 23.0.2, SVG Export Plug-In . SVG Version: 6.00 Build 0)  -->
<svg version="1.1" id="Layer_1" xmlns="http://www.w3.org/2000/svg" xmlns:xlink="http://www.w3.org/1999/xlink" x="0px" y="0px"
	 viewBox="0 0 167 167" style="enable-background:new 0 0 167 167;" xml:space="preserve">
<style type="text/css">
	.st0{fill:#3C3D3B;}
</style>
<path class="st0" d="M137-118.2H-20c-2.8,0-5-2.3-5-5v-13c0-2.8,2.3-5,5-5h157c2.8,0,5,2.3,5,5v13C142-120.5,139.7-118.2,137-118.2z
	"/>
<path class="st0" d="M137.6-76.6H18.2c-2.4,0-4.4-2-4.4-4.4v-14.2c0-2.4,2-4.4,4.4-4.4h119.4c2.4,0,4.4,2,4.4,4.4V-81
	C142-78.6,140-76.6,137.6-76.6z"/>
<path class="st0" d="M138.3-32.4H54.6c-2,0-3.7-1.7-3.7-3.7v-15.6c0-2,1.7-3.7,3.7-3.7h83.7c2,0,3.7,1.7,3.7,3.7v15.6
	C142-34.1,140.3-32.4,138.3-32.4z"/>
<path class="st0" d="M377-104.4H220c-2.8,0-5-2.3-5-5v-13c0-2.8,2.3-5,5-5h157c2.8,0,5,2.3,5,5v13
	C382.1-106.6,379.8-104.4,377-104.4z"/>
<path class="st0" d="M377.7-62.8H258.3c-2.4,0-4.4-2-4.4-4.4v-14.2c0-2.4,2-4.4,4.4-4.4h119.4c2.4,0,4.4,2,4.4,4.4v14.2
	C382.1-64.8,380.1-62.8,377.7-62.8z"/>
<path class="st0" d="M378.4-18.6h-83.7c-2,0-3.7-1.7-3.7-3.7v-15.6c0-2,1.7-3.7,3.7-3.7h83.7c2,0,3.7,1.7,3.7,3.7v15.6
	C382.1-20.2,380.4-18.6,378.4-18.6z"/>
<g>
	<path class="st0" d="M362.2,123.2c1.8,1.9,2.7,4.4,2.7,7v75.9c0,4.6,5.5,6.9,8.8,3.7l21.2-24.3c2.8-3.4,4.4-5.1,4.4-8.5v-46.8
		c0-2.6,1-5.1,2.7-7l60.8-66c4.6-4.9,1-13-5.7-13h-150c-6.7,0.1-10.2,8.1-5.7,13.1L362.2,123.2z"/>
</g>
<g>
	<path id="Path_10" class="st0" d="M144,119.4c-0.6,1.7-1.1,3.4-1.7,5.6c-13-14.6-25.3-28.7-38.3-42.8c12.4-11.3,25.3-22,37.7-33.2
		c1.2,1.7,2,3.6,2.3,5.6C144,76.6,144,98,144,119.4z"/>
	<path id="Path_11" class="st0" d="M23,54.6c0.5-1.5,1-3,1.7-4.5c0-0.6,0.6-0.6,0.6-1.1c12.4,11.3,25.3,22,37.7,33.2
		C50,96.3,37.6,111,24.6,125.1c-0.6-1.7-1.1-3.4-1.7-5.6C23,98,23,76.6,23,54.6z"/>
	<path id="Path_12" class="st0" d="M69.1,86.8L81,96.9c2.3,1.7,3.9,1.7,5.6,0l11.8-10.1c13,14.6,25.9,28.7,38.9,43.4
		c-0.3,0-0.6,0.2-0.6,0.5c0,0,0,0,0,0c-2.1,1.1-4.4,1.7-6.8,1.7H38.7c-2.8,0-5.5-0.7-7.9-2.3C43.2,115.5,56.2,101.4,69.1,86.8z"/>
	<path id="Path_13" class="st0" d="M136.2,44c-17.5,15.2-34.9,30.4-52.4,46.2C66.3,74.9,48.9,59.7,31.4,44c1.9-1.1,4-1.7,6.2-1.7
		h91.8C131.8,41.7,134.3,42.4,136.2,44z"/>
</g>
</svg>
