<?xml version="1.0" encoding="utf-8"?>
<!-- Generator: Adobe Illustrator 23.0.2, SVG Export Plug-In . SVG Version: 6.00 Build 0)  -->
<svg version="1.1" id="Layer_1" xmlns="http://www.w3.org/2000/svg" xmlns:xlink="http://www.w3.org/1999/xlink" x="0px" y="0px"
	 viewBox="0 0 167 167" style="enable-background:new 0 0 167 167;" xml:space="preserve">
<style type="text/css">
	.st0{fill:#3C3D3B;}
</style>
<path class="st0" d="M137-118.2H-20c-2.8,0-5-2.3-5-5v-13c0-2.8,2.3-5,5-5h157c2.8,0,5,2.3,5,5v13C142-120.5,139.7-118.2,137-118.2z
	"/>
<path class="st0" d="M137.6-76.6H18.2c-2.4,0-4.4-2-4.4-4.4v-14.2c0-2.4,2-4.4,4.4-4.4h119.4c2.4,0,4.4,2,4.4,4.4V-81
	C142-78.6,140-76.6,137.6-76.6z"/>
<path class="st0" d="M138.3-32.4H54.6c-2,0-3.7-1.7-3.7-3.7v-15.6c0-2,1.7-3.7,3.7-3.7h83.7c2,0,3.7,1.7,3.7,3.7v15.6
	C142-34.1,140.3-32.4,138.3-32.4z"/>
<path class="st0" d="M377-104.4H220c-2.8,0-5-2.3-5-5v-13c0-2.8,2.3-5,5-5h157c2.8,0,5,2.3,5,5v13
	C382.1-106.6,379.8-104.4,377-104.4z"/>
<path class="st0" d="M377.7-62.8H258.3c-2.4,0-4.4-2-4.4-4.4v-14.2c0-2.4,2-4.4,4.4-4.4h119.4c2.4,0,4.4,2,4.4,4.4v14.2
	C382.1-64.8,380.1-62.8,377.7-62.8z"/>
<path class="st0" d="M378.4-18.6h-83.7c-2,0-3.7-1.7-3.7-3.7v-15.6c0-2,1.7-3.7,3.7-3.7h83.7c2,0,3.7,1.7,3.7,3.7v15.6
	C382.1-20.2,380.4-18.6,378.4-18.6z"/>
<g>
	<path class="st0" d="M63.6,78.9c1.8,1.9,2.7,4.4,2.7,7v75.9c0,4.6,5.5,6.9,8.8,3.7l21.2-24.3c2.8-3.4,4.4-5.1,4.4-8.5V85.9
		c0-2.6,1-5.1,2.7-7l60.8-66c4.6-4.9,1-13-5.7-13H8.5C1.8,0-1.7,8,2.8,13L63.6,78.9z"/>
</g>
</svg>
