<?xml version="1.0" encoding="utf-8"?>
<!-- Generator: Adobe Illustrator 23.0.6, SVG Export Plug-In . SVG Version: 6.00 Build 0)  -->
<svg version="1.1" id="Layer_1" xmlns="http://www.w3.org/2000/svg" xmlns:xlink="http://www.w3.org/1999/xlink" x="0px" y="0px"
	 viewBox="0 0 202.7 202.7" style="enable-background:new 0 0 202.7 202.7;" xml:space="preserve">
<style type="text/css">
	.st0{fill:#3D3E3C;}
	.st1{fill:none;stroke:#2D2D2B;stroke-width:1.9064;stroke-miterlimit:10;}
	.st2{fill:#FAFBFC;stroke:#2D2D2B;stroke-width:2.0991;stroke-miterlimit:10;}
	.st3{fill:#F9FAFB;stroke:#2C2D2B;stroke-width:1.4297;stroke-miterlimit:10;}
	.st4{fill:#F9FAFB;stroke:#2C2D2B;stroke-width:1.1417;stroke-miterlimit:10;}
</style>
<g>
	
		<image style="overflow:visible;opacity:0.25;" width="229" height="229" xlink:href="5677A7B35FAA307.png"  transform="matrix(1 0 0 1 -6 -6.3)">
	</image>
	<g>
		<circle class="st0" cx="101.8" cy="101.4" r="98.2"/>
		<circle class="st1" cx="101.8" cy="101.4" r="98.2"/>
	</g>
</g>
<path class="st2" d="M138.7-79.5l-41.5-48.4c-1-1.1-1-2.8-0.1-3.9l41.5-51.9c1-1.3,2.8-1.5,4.1-0.6l6.1,4.1c1.5,1,1.8,3,0.7,4.5
	l-33.9,44.1c-0.9,1.1-0.9,2.8,0.1,3.9l33.6,40.4c1.2,1.4,0.9,3.5-0.7,4.6l-6.1,4.1C141.5-78.1,139.7-78.3,138.7-79.5z"/>
<g>
	<path class="st3" d="M140.8,137.3H65.2c-1.8,0-3.4-1.1-3.4-2.4v-10.1c0-1.3,1.6-2.4,3.4-2.4h75.7c1.8,0,3.4,1.1,3.4,2.4v10.1
		C144.1,136.3,142.6,137.3,140.8,137.3z"/>
	<g>
		<path class="st3" d="M141.6,81.6H64.3c-1.4,0-2.4-1.5-2.4-3.2v-8.5c0-1.8,1.1-3.2,2.4-3.2h77.4c1.4,0,2.4,1.5,2.4,3.2v8.4
			C144.1,80.1,143,81.6,141.6,81.6z"/>
		<path class="st3" d="M141.3,108.6H64.6c-1.6,0-2.9-1.3-2.9-2.9v-9.2c0-1.6,1.3-2.9,2.9-2.9h76.7c1.6,0,2.9,1.3,2.9,2.9v9.2
			C144.1,107.3,142.8,108.6,141.3,108.6z"/>
	</g>
</g>
<g>
	<path class="st4" d="M-59.8,73.8h-60.4c-1.4,0-2.7-0.9-2.7-1.9v-8.1c0-1,1.3-1.9,2.7-1.9h60.4c1.4,0,2.7,0.9,2.7,1.9v8.1
		C-57.1,72.9-58.4,73.8-59.8,73.8z"/>
	<g>
		<path class="st4" d="M-59.1,29.3h-61.8c-1.1,0-1.9-1.2-1.9-2.6v-6.8c0-1.4,0.9-2.6,1.9-2.6h61.8c1.1,0,1.9,1.2,1.9,2.6v6.7
			C-57.1,28.1-58.1,29.3-59.1,29.3z"/>
		<path class="st4" d="M-59.4,50.9h-61.2c-1.3,0-2.3-1-2.3-2.3v-7.4c0-1.3,1-2.3,2.3-2.3h61.2c1.3,0,2.3,1,2.3,2.3v7.4
			C-57.1,49.8-58.2,50.9-59.4,50.9z"/>
		<circle class="st4" cx="-137" cy="23.3" r="5.5"/>
		<circle class="st4" cx="-137" cy="44.9" r="5.5"/>
		<circle class="st4" cx="-137" cy="67.9" r="5.5"/>
	</g>
</g>
</svg>
