<?xml version="1.0" encoding="utf-8"?>
<!-- Generator: Adobe Illustrator 23.0.6, SVG Export Plug-In . SVG Version: 6.00 Build 0)  -->
<svg version="1.1" id="Layer_1" xmlns="http://www.w3.org/2000/svg" xmlns:xlink="http://www.w3.org/1999/xlink" x="0px" y="0px"
	 viewBox="0 0 202.7 202.7" style="enable-background:new 0 0 202.7 202.7;" xml:space="preserve">
<style type="text/css">
	.st0{fill:#3D3E3C;}
	.st1{fill:none;stroke:#2D2D2B;stroke-width:1.9064;stroke-miterlimit:10;}
	.st2{fill:#FAFBFC;stroke:#2D2D2B;stroke-width:2.0991;stroke-miterlimit:10;}
	.st3{fill:#F9FAFB;stroke:#2C2D2B;stroke-width:1.1417;stroke-miterlimit:10;}
</style>
<g>
	<circle class="st0" cx="376.8" cy="108.2" r="98.2"/>
	<circle class="st1" cx="376.8" cy="108.2" r="98.2"/>
</g>
<path class="st2" d="M138.7-79.5l-41.5-48.4c-1-1.1-1-2.8-0.1-3.9l41.5-51.9c1-1.3,2.8-1.5,4.1-0.6l6.1,4.1c1.5,1,1.8,3,0.7,4.5
	l-33.9,44.1c-0.9,1.1-0.9,2.8,0.1,3.9l33.6,40.4c1.2,1.4,0.9,3.5-0.7,4.6l-6.1,4.1C141.5-78.1,139.7-78.3,138.7-79.5z"/>
<path class="st0" d="M146,146H55.7c-2.1,0-4.1-1.3-4.1-2.9v-12.1c0-1.6,1.9-2.9,4.1-2.9h90.4c2.1,0,4.1,1.3,4.1,2.9v12.1
	C149.9,144.8,148.1,146,146,146z"/>
<g>
	<path class="st0" d="M146.9,79.5H54.6c-1.7,0-2.9-1.8-2.9-3.8V65.5c0-2.1,1.3-3.8,2.9-3.8h92.4c1.7,0,2.9,1.8,2.9,3.8v10
		C149.9,77.7,148.6,79.5,146.9,79.5z"/>
	<path class="st0" d="M146.6,111.7H55c-1.9,0-3.5-1.6-3.5-3.5v-11c0-1.9,1.6-3.5,3.5-3.5h91.6c1.9,0,3.5,1.6,3.5,3.5v11
		C149.9,110.2,148.4,111.7,146.6,111.7z"/>
</g>
<g>
	<path class="st3" d="M-59.8,73.8h-60.4c-1.4,0-2.7-0.9-2.7-1.9v-8.1c0-1,1.3-1.9,2.7-1.9h60.4c1.4,0,2.7,0.9,2.7,1.9v8.1
		C-57.1,72.9-58.4,73.8-59.8,73.8z"/>
	<g>
		<path class="st3" d="M-59.1,29.3h-61.8c-1.1,0-1.9-1.2-1.9-2.6v-6.8c0-1.4,0.9-2.6,1.9-2.6h61.8c1.1,0,1.9,1.2,1.9,2.6v6.7
			C-57.1,28.1-58.1,29.3-59.1,29.3z"/>
		<path class="st3" d="M-59.4,50.9h-61.2c-1.3,0-2.3-1-2.3-2.3v-7.4c0-1.3,1-2.3,2.3-2.3h61.2c1.3,0,2.3,1,2.3,2.3v7.4
			C-57.1,49.8-58.2,50.9-59.4,50.9z"/>
		<circle class="st3" cx="-137" cy="23.3" r="5.5"/>
		<circle class="st3" cx="-137" cy="44.9" r="5.5"/>
		<circle class="st3" cx="-137" cy="67.9" r="5.5"/>
	</g>
</g>
</svg>
