<?xml version="1.0" encoding="utf-8"?>
<!-- Generator: Adobe Illustrator 23.0.6, SVG Export Plug-In . SVG Version: 6.00 Build 0)  -->
<svg version="1.1" id="Layer_1" xmlns="http://www.w3.org/2000/svg" xmlns:xlink="http://www.w3.org/1999/xlink" x="0px" y="0px"
	 viewBox="0 0 183.6 184.1" style="enable-background:new 0 0 183.6 184.1;" xml:space="preserve">
<style type="text/css">
	.st0{fill:#3C3D3B;stroke:#2C2D2B;stroke-width:1.5;stroke-miterlimit:10;}
	.st1{fill:#FAFAFA;stroke:#2C2D2B;stroke-miterlimit:10;}
	.st2{fill:#FAFAFA;stroke:#2C2D2B;stroke-width:1.6516;stroke-miterlimit:10;}
	.st3{fill:#3C3D3B;stroke:#2C2D2B;stroke-width:1.7269;stroke-miterlimit:10;}
	.st4{fill:#FAFAFA;stroke:#2C2D2B;stroke-width:1.9014;stroke-miterlimit:10;}
</style>
<circle class="st0" cx="461.3" cy="470.1" r="77.2"/>
<g>
	<path class="st1" d="M128.1-14.8H75.3c-1.2,0-2.3-0.7-2.3-1.7v-7.1c0-0.9,1.1-1.7,2.3-1.7h52.9c1.2,0,2.3,0.7,2.3,1.7v7.1
		C130.5-15.6,129.4-14.8,128.1-14.8z"/>
	<g>
		<path class="st1" d="M128.7-53.8H74.6c-0.9,0-1.7-1-1.7-2.2V-62c0-1.2,0.8-2.2,1.7-2.2h54.1c0.9,0,1.7,1,1.7,2.2v5.9
			C130.5-54.9,129.7-53.8,128.7-53.8z"/>
		<path class="st1" d="M128.5-34.9H74.9c-1.1,0-2-0.9-2-2v-6.4c0-1.1,0.9-2,2-2h53.6c1.1,0,2,0.9,2,2v6.4
			C130.5-35.8,129.6-34.9,128.5-34.9z"/>
		<circle class="st1" cx="60.6" cy="-59.1" r="4.8"/>
		<circle class="st1" cx="60.6" cy="-40.1" r="4.8"/>
		<circle class="st1" cx="60.6" cy="-20" r="4.8"/>
	</g>
</g>
<path class="st2" d="M469.2,511.9l-32.6-38.1c-0.8-0.9-0.8-2.2-0.1-3.1l32.7-40.9c0.8-1,2.2-1.2,3.3-0.5l4.8,3.2
	c1.2,0.8,1.4,2.4,0.6,3.5l-26.7,34.7c-0.7,0.9-0.7,2.2,0.1,3l26.5,31.8c0.9,1.1,0.7,2.8-0.5,3.6l-4.8,3.2
	C471.4,513,470,512.8,469.2,511.9z"/>
<circle class="st3" cx="91.9" cy="92.2" r="88.9"/>
<path class="st4" d="M100.9,140.3L63.4,96.5c-0.9-1-0.9-2.5-0.1-3.6l37.6-47c0.9-1.1,2.5-1.4,3.7-0.6l5.5,3.7c1.4,0.9,1.7,2.8,0.7,4
	L80.2,93c-0.8,1-0.8,2.5,0.1,3.5l30.5,36.6c1.1,1.3,0.8,3.2-0.6,4.1l-5.5,3.7C103.4,141.6,101.8,141.4,100.9,140.3z"/>
</svg>
