<?xml version="1.0" encoding="utf-8"?>
<!-- Generator: Adobe Illustrator 23.0.4, SVG Export Plug-In . SVG Version: 6.00 Build 0)  -->
<svg version="1.1" id="Layer_1" xmlns="http://www.w3.org/2000/svg" xmlns:xlink="http://www.w3.org/1999/xlink" x="0px" y="0px"
	 viewBox="0 0 149.7 98.9" style="enable-background:new 0 0 149.7 98.9;" xml:space="preserve">
<style type="text/css">
	.st0{fill:#FFFFFF;}
	.st1{fill:#3C3D3B;}
</style>
<g id="Layer_3">
	<rect x="-76.7" y="-32.5" class="st0" width="278.8" height="167"/>
</g>
<path class="st1" d="M146.1,20.9H37.8c-1.9,0-3.4-2.1-3.4-4.5V4.5C34.4,2,36,0,37.8,0h108.3c1.9,0,3.4,2.1,3.4,4.5v11.8
	C149.6,18.8,148,20.9,146.1,20.9z"/>
<path class="st1" d="M145.6,58.7H38.3c-2.2,0-4-1.8-4-4V41.8c0-2.2,1.8-4,4-4h107.3c2.2,0,4,1.8,4,4v12.9
	C149.6,56.9,147.8,58.7,145.6,58.7z"/>
<path class="st1" d="M144.9,98.9H39.1c-2.5,0-4.7-1.5-4.7-3.4V81.3c0-1.8,2.2-3.4,4.7-3.4H145c2.5,0,4.7,1.5,4.7,3.4v14.2
	C149.6,97.4,147.4,98.9,144.9,98.9z"/>
<circle class="st1" cx="9.7" cy="10.4" r="9.7"/>
<circle class="st1" cx="9.7" cy="48.3" r="9.7"/>
<circle class="st1" cx="9.7" cy="88.5" r="9.7"/>
</svg>
