<?xml version="1.0" encoding="utf-8"?>
<!-- Generator: Adobe Illustrator 23.0.2, SVG Export Plug-In . SVG Version: 6.00 Build 0)  -->
<svg version="1.1" id="Layer_1" xmlns="http://www.w3.org/2000/svg" xmlns:xlink="http://www.w3.org/1999/xlink" x="0px" y="0px"
	 viewBox="0 0 167 167" style="enable-background:new 0 0 167 167;" xml:space="preserve">
<style type="text/css">
	.st0{fill:#3C3D3B;}
</style>
<path class="st0" d="M162,53.4H5c-2.8,0-5-2.3-5-5v-13c0-2.8,2.3-5,5-5h157c2.8,0,5,2.3,5,5v13C167,51.1,164.7,53.4,162,53.4z"/>
<path class="st0" d="M162.6,95H43.2c-2.4,0-4.4-2-4.4-4.4V76.4c0-2.4,2-4.4,4.4-4.4h119.4c2.4,0,4.4,2,4.4,4.4v14.2
	C167,93,165,95,162.6,95z"/>
<path class="st0" d="M163.3,139.2H79.6c-2,0-3.7-1.7-3.7-3.7v-15.6c0-2,1.7-3.7,3.7-3.7h83.7c2,0,3.7,1.7,3.7,3.7v15.6
	C167,137.5,165.3,139.2,163.3,139.2z"/>
<path class="st0" d="M377-104.4h-157c-2.8,0-5-2.3-5-5v-13c0-2.8,2.3-5,5-5h157c2.8,0,5,2.3,5,5v13
	C382.1-106.6,379.8-104.4,377-104.4z"/>
<path class="st0" d="M377.7-62.8H258.3c-2.4,0-4.4-2-4.4-4.4v-14.2c0-2.4,2-4.4,4.4-4.4h119.4c2.4,0,4.4,2,4.4,4.4v14.2
	C382.1-64.8,380.1-62.8,377.7-62.8z"/>
<path class="st0" d="M378.4-18.6h-83.7c-2,0-3.7-1.7-3.7-3.7v-15.6c0-2,1.7-3.7,3.7-3.7h83.7c2,0,3.7,1.7,3.7,3.7v15.6
	C382.1-20.2,380.4-18.6,378.4-18.6z"/>
</svg>
