<?xml version="1.0" encoding="utf-8"?>
<!-- Generator: Adobe Illustrator 23.0.2, SVG Export Plug-In . SVG Version: 6.00 Build 0)  -->
<svg version="1.1" xmlns="http://www.w3.org/2000/svg" xmlns:xlink="http://www.w3.org/1999/xlink" x="0px" y="0px"
	 viewBox="0 0 193.6 167" style="enable-background:new 0 0 193.6 167;" xml:space="preserve">
<style type="text/css">
	.st0{fill:#FFFFFF;}
	.st1{fill:#3C3D3B;}
</style>
<g id="Layer_3">
	<rect x="-55.8" y="0" class="st0" width="278.8" height="167"/>
</g>
<g id="Layer_1">
	<path class="st1" d="M186,53.4H29c-2.8,0-5-2.3-5-5v-13c0-2.8,2.3-5,5-5h157c2.8,0,5,2.3,5,5v13C191,51.1,188.7,53.4,186,53.4z"/>
	<path class="st1" d="M186.6,95H67.2c-2.4,0-4.4-2-4.4-4.4V76.4c0-2.4,2-4.4,4.4-4.4h119.4c2.4,0,4.4,2,4.4,4.4v14.2
		C191,93,189,95,186.6,95z"/>
	<path class="st1" d="M187.3,139.2h-83.7c-2,0-3.7-1.7-3.7-3.7v-15.6c0-2,1.7-3.7,3.7-3.7h83.7c2,0,3.7,1.7,3.7,3.7v15.6
		C191,137.5,189.3,139.2,187.3,139.2z"/>
	<path class="st1" d="M401-104.4H244c-2.8,0-5-2.3-5-5v-13c0-2.8,2.3-5,5-5h157c2.8,0,5,2.3,5,5v13
		C406.1-106.6,403.8-104.4,401-104.4z"/>
	<path class="st1" d="M401.7-62.8H282.3c-2.4,0-4.4-2-4.4-4.4v-14.2c0-2.4,2-4.4,4.4-4.4h119.4c2.4,0,4.4,2,4.4,4.4v14.2
		C406.1-64.8,404.1-62.8,401.7-62.8z"/>
	<path class="st1" d="M402.4-18.6h-83.7c-2,0-3.7-1.7-3.7-3.7v-15.6c0-2,1.7-3.7,3.7-3.7h83.7c2,0,3.7,1.7,3.7,3.7v15.6
		C406.1-20.2,404.4-18.6,402.4-18.6z"/>
	<g id="Layer_2">
	</g>
</g>
</svg>
