<svg id="Layer_1" data-name="Layer 1" xmlns="http://www.w3.org/2000/svg" viewBox="0 0 198.26 198.26"><defs><style>.cls-1{fill:#3d3e3c;stroke-width:1.91px;}.cls-1,.cls-2{stroke:#2d2d2b;stroke-miterlimit:10;}.cls-2{fill:#fafbfc;stroke-width:2.1px;}</style></defs><title>index1</title><circle class="cls-1" cx="99.13" cy="99.13" r="98.18"/><path class="cls-2" d="M111.79,154.47,70.33,106.1a3.09,3.09,0,0,1-.07-3.95L111.8,50.23a3.11,3.11,0,0,1,4.14-.64l6.11,4.07a3.09,3.09,0,0,1,.73,4.46L88.89,102.19a3.1,3.1,0,0,0,.07,3.87l33.64,40.36a3.1,3.1,0,0,1-.66,4.56L115.86,155A3.1,3.1,0,0,1,111.79,154.47Z" transform="translate(-2.67 -2.23)"/></svg>