<?xml version="1.0" encoding="utf-8"?>
<!-- Generator: Adobe Illustrator 23.0.2, SVG Export Plug-In . SVG Version: 6.00 Build 0)  -->
<svg version="1.1" id="Layer_1" xmlns="http://www.w3.org/2000/svg" xmlns:xlink="http://www.w3.org/1999/xlink" x="0px" y="0px"
	 viewBox="0 0 2 2" style="enable-background:new 0 0 2 2;" xml:space="preserve">
<style type="text/css">
	.st0{fill:#3C3D3B;}
</style>
<path class="st0" d="M1.9,1.7L1.4,1.2c0.1-0.1,0.1-0.2,0.1-0.4c0-0.4-0.3-0.7-0.7-0.7S0.1,0.4,0.1,0.8c0,0.4,0.3,0.7,0.7,0.7
	c0.1,0,0.3,0,0.4-0.1l0.5,0.5L1.9,1.7z M0.8,1.3c-0.2,0-0.5-0.2-0.5-0.5c0-0.2,0.2-0.5,0.5-0.5c0.2,0,0.5,0.2,0.5,0.5
	C1.3,1.1,1.1,1.3,0.8,1.3z"/>
</svg>
