<?xml version="1.0" encoding="utf-8"?>
<!-- Generator: Adobe Illustrator 23.0.6, SVG Export Plug-In . SVG Version: 6.00 Build 0)  -->
<svg version="1.1" id="Layer_1" xmlns="http://www.w3.org/2000/svg" xmlns:xlink="http://www.w3.org/1999/xlink" x="0px" y="0px"
	 viewBox="0 0 18.2 14.6" style="enable-background:new 0 0 18.2 14.6;" xml:space="preserve">
<style type="text/css">
	.st0{fill:#3C3D3B;}
	.st1{fill:#FAFAFA;}
</style>
<g>
	<path class="st0" d="M8.6-19.8c-3.8,0-6.9,2.4-6.9,5.3c0,0.9,0.2,1.7,0.7,2.4c0.2,0.4,0.5,0.7,0.9,1s0.7,0.5,0.9,0.9
		C4.4-9.6,4.6-9,4.7-8.4C4.8-8.2,4.8-8,5-7.8c-0.1-0.1,1.4-0.9,1.5-1c0.6-0.3,1.1-0.3,1.7-0.3c2.5,0.2,5.6-1,6.6-3.5
		c0.3-0.6,0.4-1.2,0.4-1.8C15.4-17.3,12.4-19.8,8.6-19.8z"/>
	<circle class="st1" cx="6" cy="-14.5" r="0.8"/>
	<circle class="st1" cx="8.8" cy="-14.5" r="0.8"/>
	<circle class="st1" cx="11.6" cy="-14.5" r="0.8"/>
</g>
<g>
	<g>
		<path class="st0" d="M3.1,2.7L8.2,7c0.2,0.2,0.6,0.3,0.9,0.3C9.4,7.2,9.7,7.1,10,7l5.1-4.3c0.4-0.3,0.3-0.6-0.2-0.6H9.1H3.3
			C2.8,2.1,2.7,2.3,3.1,2.7z"/>
		<path class="st0" d="M15.5,3.8L9.9,8.3C9.6,8.4,9.4,8.5,9.1,8.5c-0.3,0-0.5-0.1-0.8-0.2L2.7,3.8C2.3,3.5,2,3.7,2,4.2v7.3
			c0,0.5,0.4,1,1,1h6.2h6.2c0.5,0,1-0.4,1-1V4.2C16.2,3.7,15.9,3.5,15.5,3.8z"/>
	</g>
</g>
</svg>
