<?xml version="1.0" encoding="utf-8"?>
<!-- Generator: Adobe Illustrator 23.0.3, SVG Export Plug-In . SVG Version: 6.00 Build 0)  -->
<svg version="1.1" id="Layer_1" xmlns="http://www.w3.org/2000/svg" xmlns:xlink="http://www.w3.org/1999/xlink" x="0px" y="0px"
	 viewBox="0 0 172.9 167" style="enable-background:new 0 0 172.9 167;" xml:space="preserve">
<style type="text/css">
	.st0{fill:#FFFFFF;stroke:#3C3D3B;stroke-width:1.955;stroke-miterlimit:10;}
	.st1{fill:#3C3D3B;stroke:#3C3D3B;stroke-width:1.7467;stroke-miterlimit:10;}
	.st2{fill:none;}
	.st3{fill:#FFFFFF;}
	.st4{font-family:'HelveticaNeue-Bold';}
	.st5{font-size:30px;}
	.st6{fill:none;stroke:#3C3D3B;stroke-width:0.25;stroke-miterlimit:10;}
</style>
<path class="st0" d="M121.5,124.3H44.2c-1.8,0-3.3-1.6-3.3-3.5V19.5c0-1.9,1.5-3.5,3.3-3.5H107l17.9,20.9v83.8
	C124.8,122.7,123.3,124.3,121.5,124.3z"/>
<path class="st0" d="M127,118.8H49.7c-1.8,0-3.3-1.6-3.3-3.5V14c0-1.9,1.5-3.5,3.3-3.5h62.8l17.9,20.9v83.8
	C130.4,117.3,128.9,118.8,127,118.8z"/>
<polygon class="st1" points="124.2,86.7 107.6,86.7 107.6,70.1 100.2,70.1 100.2,86.7 83.6,86.7 83.6,94.2 100.2,94.2 100.2,110.8 
	107.6,110.8 107.6,94.2 124.2,94.2 "/>
<polygon class="st0" points="113.1,31.5 113.5,11.6 129.5,30.5 "/>
<rect x="-0.5" y="140.6" class="st2" width="173.9" height="34.5"/>
<text transform="matrix(1 0 0 1 3.9961 166.3499)" class="st3 st4 st5">New Article</text>
<text transform="matrix(1 0 0 1 3.9961 166.3499)" class="st6 st4 st5">New Article</text>
</svg>
