<?xml version="1.0" encoding="utf-8"?>
<!-- Generator: Adobe Illustrator 23.0.4, SVG Export Plug-In . SVG Version: 6.00 Build 0)  -->
<svg version="1.1" id="Layer_1" xmlns="http://www.w3.org/2000/svg" xmlns:xlink="http://www.w3.org/1999/xlink" x="0px" y="0px"
	 viewBox="0 0 172.7 205.2" style="enable-background:new 0 0 172.7 205.2;" xml:space="preserve">
<style type="text/css">
	.st0{fill:url(#SVGID_1_);}
	.st1{fill:#3C3D3B;}
	.st2{fill:url(#SVGID_2_);}
	.st3{fill:#FFFFFF;}
	.st4{fill:url(#SVGID_3_);}
</style>
<linearGradient id="SVGID_1_" gradientUnits="userSpaceOnUse" x1="0" y1="105.9394" x2="172.6509" y2="105.9394" gradientTransform="matrix(1 0 0 -1 0 208.5387)">
	<stop  offset="0" style="stop-color:#36B24A"/>
	<stop  offset="1" style="stop-color:#28AAE1"/>
</linearGradient>
<path class="st0" d="M160.3,0.9C144.1-4,115.6,11.5,86.3,38.7C57.1,11.5,28.6-4,12.4,0.9C-10.2,7.6-0.9,51.8,32.6,102.6
	c-33.5,50.8-42.8,95-20.2,101.7c16.2,4.8,44.7-10.6,73.9-37.8c29.2,27.2,57.8,42.7,73.9,37.8c22.6-6.8,13.3-50.9-20.2-101.7
	C173.5,51.8,182.9,7.6,160.3,0.9z M125.5,154.7c-8.2,2.5-22.7-5.4-37.6-19.2c-14.9,13.8-29.4,21.7-37.6,19.2
	c-11.5-3.4-6.8-25.9,10.3-51.7c-17-25.8-21.8-48.3-10.3-51.7c8.2-2.5,22.7,5.4,37.6,19.2c14.9-13.8,29.4-21.7,37.6-19.2
	c11.5,3.4,6.7,25.9-10.3,51.7C132.2,128.8,137,151.2,125.5,154.7z"/>
<g>
	<g>
		<g>
			<path class="st1" d="M279.5,141.5h13.3c1,0,1.8-0.8,1.8-1.8V66.3c0-1-0.8-1.8-1.8-1.8h-13.3c-1,0-1.8,0.8-1.8,1.8v73.5
				C277.7,140.7,278.5,141.5,279.5,141.5z"/>
			<path class="st1" d="M286.1,36.7c-5.4,0-9.9,4.4-9.9,9.8s4.4,9.8,9.9,9.8s9.9-4.4,9.9-9.8S291.6,36.7,286.1,36.7z"/>
		</g>
		<path class="st1" d="M232.1,64.5c-8.7-0.2-14.1,2.3-20.5,7.3l0-2.7c0-1.3-1.2-2.9-2.4-2.9l-14.6-0.1c-1,0-1.8,0.8-1.8,1.8v103.7
			c0,1,0.8,1.8,1.8,1.8h15.3c1,0,1.8-0.8,1.8-1.8l0-39c6.3,4.9,13.6,7.9,22,7.3c20.5-1.4,32.7-16.4,33.1-37.5
			C267.2,80.9,252.3,65,232.1,64.5z M228.8,123.3c-5.4,0.1-11.1-3-14.3-5.2c-1.6-1.1-2.8-3.4-2.8-5.3c0-5.4-0.1-16.4-0.1-21.5
			c0-1.7,1-3.9,2.3-5c3-2.5,8.8-6.1,17.7-4.4c9.9,1.9,17.5,11.3,17.3,21C248.6,115,241.6,123,228.8,123.3z"/>
		<path class="st1" d="M350.8,100.8c-0.2-0.4-0.2-0.9,0-1.3L374.5,67c0.8-1,0-2.5-1.3-2.5H358c-0.6,0-1.4,0.4-1.8,0.9L342,85.7
			c-1,1.4-2.6,1.4-3.5,0L325,65.5c-0.4-0.5-1.1-0.9-1.8-0.9h-16.1c-1.3,0-2,1.5-1.3,2.5c5.3,7.3,20.7,28.5,23.5,32.5
			c0.2,0.3,0.2,0.9,0,1.3l-26,38.3c-0.7,1.1,0,2.5,1.3,2.5h15.6c0.7,0,1.4-0.4,1.8-1l16.3-24.8c1-1.5,2.6-1.5,3.6,0l16.8,24.8
			c0.4,0.6,1.1,0.9,1.8,0.9h16c1.3,0,2-1.4,1.3-2.5L350.8,100.8z"/>
	</g>
</g>
<g>
	<g>
		
			<linearGradient id="SVGID_2_" gradientUnits="userSpaceOnUse" x1="413.2674" y1="-208.1407" x2="585.914" y2="-208.1407" gradientTransform="matrix(1 0 0 -1 0 208.5387)">
			<stop  offset="0" style="stop-color:#FFFFFF"/>
			<stop  offset="0" style="stop-color:#36B24A"/>
			<stop  offset="1" style="stop-color:#28AAE1"/>
		</linearGradient>
		<path class="st2" d="M573.5,315c-16.2-4.8-44.7,10.6-73.9,37.8c-29.2-27.2-57.8-42.7-73.9-37.8c-22.6,6.8-13.3,50.9,20.2,101.7
			c-33.5,50.8-42.8,94.9-20.2,101.7c16.2,4.8,44.7-10.7,73.9-37.8c29.2,27.2,57.8,42.7,73.9,37.8c22.6-6.8,13.3-50.9-20.2-101.7
			C586.8,365.9,596.2,321.7,573.5,315z M538.7,468.8c-8.2,2.5-22.7-5.4-37.6-19.2c-14.9,13.8-29.4,21.7-37.6,19.2
			c-11.5-3.4-6.8-25.9,10.3-51.7c-17-25.8-21.8-48.3-10.3-51.7c8.2-2.5,22.7,5.4,37.6,19.2c14.9-13.8,29.4-21.7,37.6-19.2
			c11.5,3.4,6.8,25.9-10.3,51.7C545.5,442.9,550.3,465.3,538.7,468.8z"/>
		<g>
			<g>
				<g>
					<path class="st3" d="M690.8,455.6H704c1,0,1.8-0.8,1.8-1.8v-73.4c0-1-0.8-1.8-1.8-1.8h-13.3c-1,0-1.8,0.8-1.8,1.8v73.4
						C689,454.8,689.8,455.6,690.8,455.6z"/>
					<path class="st3" d="M697.4,350.7c-5.4,0-9.8,4.4-9.8,9.9s4.4,9.9,9.8,9.9s9.8-4.4,9.8-9.9
						C707.2,355.1,702.8,350.7,697.4,350.7z"/>
				</g>
				<path class="st3" d="M643.4,378.6c-8.7-0.2-14.2,2.3-20.5,7.3l0-2.7c0-1.3-1.2-3-2.5-3l-14.6-0.1c-1,0-1.8,0.8-1.8,1.8v103.7
					c0,1,0.8,1.8,1.8,1.8h15.3c1,0,1.8-0.8,1.8-1.8l0-39c6.3,4.9,13.7,7.9,22,7.3c20.5-1.4,32.7-16.4,33.1-37.5
					C678.4,395,663.6,379.1,643.4,378.6z M640.1,437.4c-5.4,0.1-11.1-3-14.3-5.2c-1.6-1-2.8-3.5-2.8-5.3c0-5.5-0.1-16.4-0.1-21.5
					c0-1.7,1-3.9,2.3-5c3-2.5,8.8-6.1,17.7-4.4c9.9,1.9,17.5,11.3,17.3,21C659.9,429.1,652.9,437.1,640.1,437.4z"/>
				<path class="st3" d="M762.1,414.8c-0.2-0.4-0.2-0.9,0-1.3l23.6-32.4c0.8-1,0-2.5-1.3-2.5h-15.2c-0.6,0-1.4,0.4-1.8,0.9
					l-14.2,20.2c-1,1.4-2.6,1.4-3.5,0l-13.5-20.1c-0.3-0.5-1.2-1-1.8-1h-16.1c-1.3,0-2,1.5-1.3,2.5c5.3,7.3,20.7,28.5,23.5,32.5
					c0.2,0.4,0.2,0.9,0,1.3l-26,38.3c-0.7,1,0,2.5,1.3,2.5h15.6c0.7,0,1.4-0.4,1.8-1l16.3-24.8c1-1.5,2.6-1.5,3.6,0l16.8,24.8
					c0.4,0.6,1.1,0.9,1.8,0.9h16c1.3,0,2-1.4,1.3-2.5L762.1,414.8z"/>
			</g>
		</g>
	</g>
</g>
<g>
	<g>
		
			<linearGradient id="SVGID_3_" gradientUnits="userSpaceOnUse" x1="413.2674" y1="105.2294" x2="585.914" y2="105.2294" gradientTransform="matrix(1 0 0 -1 0 208.5387)">
			<stop  offset="0" style="stop-color:#36B24A"/>
			<stop  offset="1" style="stop-color:#28AAE1"/>
		</linearGradient>
		<path class="st4" d="M573.5,1.6c-16.2-4.8-44.7,10.6-73.9,37.8c-29.2-27.2-57.8-42.7-73.9-37.8c-22.6,6.8-13.3,50.9,20.2,101.7
			c-33.5,50.8-42.8,94.9-20.2,101.7c16.2,4.8,44.7-10.6,73.9-37.8c29.2,27.2,57.8,42.7,73.9,37.8c22.6-6.8,13.3-50.9-20.2-101.7
			C586.8,52.5,596.2,8.4,573.5,1.6z M538.7,155.4c-8.2,2.5-22.7-5.4-37.6-19.2c-14.9,13.8-29.4,21.7-37.6,19.2
			c-11.5-3.4-6.8-25.9,10.3-51.7c-17-25.8-21.8-48.3-10.3-51.7c8.2-2.5,22.7,5.4,37.6,19.2c14.9-13.8,29.4-21.7,37.6-19.2
			c11.5,3.4,6.8,25.9-10.3,51.7C545.5,129.5,550.3,152,538.7,155.4z"/>
		<g>
			<g>
				<g>
					<path class="st3" d="M690.8,142.2H704c1,0,1.8-0.8,1.8-1.8V67c0-1-0.8-1.8-1.8-1.8h-13.3c-1,0-1.8,0.8-1.8,1.8v73.4
						C689,141.4,689.8,142.2,690.8,142.2z"/>
					<path class="st3" d="M697.4,37.4c-5.4,0-9.8,4.4-9.8,9.8s4.4,9.8,9.8,9.8s9.8-4.4,9.8-9.8S702.8,37.4,697.4,37.4z"/>
				</g>
				<path class="st3" d="M643.4,65.3c-8.7-0.2-14.2,2.3-20.5,7.3l0-2.7c0-1.3-1.2-2.9-2.5-2.9l-14.6-0.1c-1,0-1.8,0.8-1.8,1.8v103.7
					c0,1,0.8,1.8,1.8,1.8h15.3c1,0,1.8-0.8,1.8-1.8l0-39c6.3,4.9,13.7,7.9,22,7.3c20.5-1.4,32.7-16.4,33.1-37.5
					C678.4,81.6,663.6,65.8,643.4,65.3z M640.1,124c-5.4,0.1-11.1-3-14.3-5.2c-1.6-1.1-2.8-3.4-2.8-5.3c0-5.4-0.1-16.4-0.1-21.5
					c0-1.7,1-3.9,2.3-5c3-2.5,8.8-6.1,17.7-4.4c9.9,1.9,17.5,11.3,17.3,21C659.9,115.7,652.9,123.7,640.1,124z"/>
				<path class="st3" d="M762.1,101.5c-0.2-0.4-0.2-0.9,0-1.3l23.6-32.4c0.8-1,0-2.5-1.3-2.5h-15.2c-0.6,0-1.4,0.4-1.8,0.9
					l-14.2,20.2c-1,1.4-2.6,1.4-3.5,0l-13.5-20.1c-0.3-0.5-1.2-0.9-1.8-0.9h-16.1c-1.3,0-2,1.5-1.3,2.5c5.3,7.3,20.7,28.5,23.5,32.5
					c0.2,0.3,0.2,0.9,0,1.3l-26,38.3c-0.7,1.1,0,2.5,1.3,2.5h15.6c0.7,0,1.4-0.4,1.8-1l16.3-24.8c1-1.5,2.6-1.5,3.6,0l16.8,24.9
					c0.4,0.6,1.1,0.9,1.8,0.9h16c1.3,0,2-1.4,1.3-2.5L762.1,101.5z"/>
			</g>
		</g>
	</g>
</g>
</svg>
