<?xml version="1.0" encoding="utf-8"?>
<!-- Generator: Adobe Illustrator 23.0.2, SVG Export Plug-In . SVG Version: 6.00 Build 0)  -->
<svg version="1.1" id="Layer_1" xmlns="http://www.w3.org/2000/svg" xmlns:xlink="http://www.w3.org/1999/xlink" x="0px" y="0px"
	 viewBox="0 0 190.2 218.09" style="enable-background:new 0 0 190.2 218.09;" xml:space="preserve">
<style type="text/css">
	.st0{fill:url(#SVGID_1_);}
	.st1{fill:#3C3D3B;}
	.st2{fill:url(#SVGID_2_);}
	.st3{fill:#FFFFFF;}
	.st4{fill:url(#SVGID_3_);}
</style>
<linearGradient id="SVGID_1_" gradientUnits="userSpaceOnUse" x1="7.4814" y1="108.3269" x2="180.1303" y2="108.3269">
	<stop  offset="0" style="stop-color:#36B24A"/>
	<stop  offset="1" style="stop-color:#28AAE1"/>
</linearGradient>
<path class="st0" d="M167.75,6.61c-16.19-4.84-44.7,10.65-73.94,37.83C64.56,17.26,36.05,1.77,19.86,6.61
	C-2.77,13.38,6.59,57.54,40.05,108.33C6.59,159.11-2.77,203.28,19.86,210.05c16.19,4.84,44.7-10.65,73.94-37.83
	c29.24,27.18,57.76,42.67,73.94,37.83c22.63-6.77,13.28-50.93-20.19-101.72C181.02,57.54,190.38,13.38,167.75,6.61z M132.96,160.42
	c-8.23,2.46-22.74-5.42-37.61-19.24c-14.88,13.82-29.38,21.71-37.61,19.24c-11.51-3.44-6.75-25.91,10.27-51.74
	c-17.02-25.83-21.78-48.3-10.27-51.74c8.23-2.46,22.74,5.42,37.61,19.24c14.88-13.82,29.38-21.71,37.61-19.24
	c11.51,3.44,6.75,25.91-10.27,51.74C139.72,134.52,144.47,156.98,132.96,160.42z"/>
<g>
	<g>
		<g>
			<path class="st1" d="M286.97,147.22h13.28c0.97,0,1.75-0.78,1.75-1.75V72.02c0-0.97-0.78-1.75-1.75-1.75h-13.28
				c-0.97,0-1.75,0.78-1.75,1.75v73.45C285.22,146.43,286,147.22,286.97,147.22z"/>
			<path class="st1" d="M293.61,42.39c-5.44,0-9.85,4.41-9.85,9.85s4.41,9.85,9.85,9.85c5.44,0,9.85-4.41,9.85-9.85
				S299.05,42.39,293.61,42.39z"/>
		</g>
		<path class="st1" d="M239.58,70.28c-8.66-0.21-14.15,2.29-20.52,7.31l0.01-2.71c0-1.26-1.19-2.95-2.45-2.95l-14.61-0.11
			c-0.97-0.01-1.76,0.78-1.76,1.75v103.69c0,0.97,0.78,1.75,1.75,1.75h15.33c0.97,0,1.75-0.78,1.75-1.75l-0.01-39.03
			c6.27,4.88,13.65,7.85,22.03,7.27c20.49-1.42,32.69-16.43,33.11-37.54C274.64,86.65,259.78,70.77,239.58,70.28z M236.32,129.04
			c-5.43,0.12-11.07-2.99-14.34-5.19c-1.56-1.05-2.8-3.45-2.81-5.33c-0.02-5.45-0.07-16.38-0.09-21.52
			c-0.01-1.67,0.99-3.9,2.26-4.99c2.97-2.54,8.77-6.11,17.67-4.42c9.87,1.88,17.55,11.26,17.34,20.99
			C256.1,120.77,249.08,128.75,236.32,129.04z"/>
		<path class="st1" d="M358.31,106.49c-0.25-0.36-0.25-0.94,0.01-1.29l23.61-32.42c0.76-1.04,0.01-2.51-1.27-2.51h-15.22
			c-0.61,0-1.4,0.41-1.75,0.91l-14.2,20.21c-0.98,1.4-2.57,1.38-3.52-0.04l-13.52-20.14c-0.35-0.52-1.15-0.95-1.78-0.95h-16.07
			c-1.29,0-2.04,1.46-1.28,2.5c5.32,7.33,20.67,28.48,23.51,32.45c0.25,0.35,0.25,0.91,0.01,1.26l-26.01,38.28
			c-0.71,1.05,0.04,2.46,1.3,2.46h15.59c0.72,0,1.39-0.36,1.79-0.96l16.3-24.79c0.97-1.47,2.57-1.48,3.56-0.03l16.84,24.84
			c0.4,0.59,1.06,0.94,1.77,0.94h15.99c1.28,0,2.03-1.44,1.29-2.48L358.31,106.49z"/>
	</g>
</g>
<g>
	<g>
		<linearGradient id="SVGID_2_" gradientUnits="userSpaceOnUse" x1="420.7415" y1="422.4107" x2="593.3904" y2="422.4107">
			<stop  offset="0" style="stop-color:#FFFFFF"/>
			<stop  offset="0" style="stop-color:#36B24A"/>
			<stop  offset="1" style="stop-color:#28AAE1"/>
		</linearGradient>
		<path class="st2" d="M581.01,320.69c-16.19-4.84-44.7,10.65-73.94,37.83c-29.24-27.18-57.76-42.67-73.94-37.83
			c-22.63,6.77-13.28,50.93,20.19,101.72c-33.47,50.79-42.82,94.95-20.19,101.72c16.19,4.84,44.7-10.65,73.94-37.83
			c29.24,27.18,57.76,42.67,73.94,37.83c22.63-6.77,13.28-50.93-20.19-101.72C594.29,371.63,603.64,327.46,581.01,320.69z
			 M546.22,474.51c-8.23,2.46-22.74-5.42-37.61-19.24c-14.88,13.82-29.38,21.71-37.61,19.24c-11.51-3.44-6.75-25.91,10.27-51.74
			c-17.02-25.83-21.78-48.3-10.27-51.74c8.23-2.46,22.74,5.42,37.61,19.24c14.88-13.82,29.38-21.71,37.61-19.24
			c11.51,3.44,6.75,25.91-10.27,51.74C552.98,448.6,557.73,471.07,546.22,474.51z"/>
		<g>
			<g>
				<g>
					<path class="st3" d="M698.23,461.3h13.28c0.97,0,1.75-0.78,1.75-1.75V386.1c0-0.97-0.78-1.75-1.75-1.75h-13.28
						c-0.97,0-1.75,0.78-1.75,1.75v73.45C696.48,460.52,697.26,461.3,698.23,461.3z"/>
					<path class="st3" d="M704.86,356.47c-5.44,0-9.85,4.41-9.85,9.85c0,5.44,4.41,9.85,9.85,9.85c5.44,0,9.85-4.41,9.85-9.85
						C714.72,360.88,710.31,356.47,704.86,356.47z"/>
				</g>
				<path class="st3" d="M650.84,384.36c-8.66-0.21-14.15,2.29-20.52,7.31l0.01-2.71c0-1.26-1.19-2.95-2.45-2.95l-14.61-0.11
					c-0.97-0.01-1.76,0.78-1.76,1.75v103.69c0,0.97,0.78,1.75,1.75,1.75h15.33c0.97,0,1.75-0.78,1.75-1.75l-0.01-39.03
					c6.27,4.88,13.65,7.85,22.03,7.27c20.49-1.42,32.69-16.43,33.11-37.54C685.9,400.73,671.04,384.86,650.84,384.36z
					 M647.58,443.12c-5.43,0.12-11.07-2.99-14.34-5.19c-1.56-1.05-2.8-3.45-2.81-5.33c-0.02-5.45-0.07-16.38-0.09-21.52
					c-0.01-1.67,0.99-3.9,2.26-4.99c2.97-2.54,8.77-6.11,17.67-4.42c9.87,1.88,17.55,11.26,17.34,20.99
					C667.36,434.85,660.34,442.84,647.58,443.12z"/>
				<path class="st3" d="M769.57,420.57c-0.25-0.36-0.25-0.94,0.01-1.29l23.61-32.42c0.76-1.04,0.01-2.51-1.27-2.51H776.7
					c-0.61,0-1.4,0.41-1.75,0.91l-14.2,20.21c-0.98,1.4-2.57,1.38-3.52-0.04L743.7,385.3c-0.35-0.52-1.15-0.95-1.78-0.95h-16.07
					c-1.29,0-2.04,1.46-1.28,2.5c5.32,7.33,20.67,28.48,23.51,32.45c0.25,0.35,0.25,0.91,0.01,1.26l-26.01,38.28
					c-0.71,1.05,0.04,2.46,1.3,2.46h15.59c0.72,0,1.39-0.36,1.79-0.96l16.3-24.79c0.97-1.47,2.57-1.48,3.56-0.03l16.84,24.84
					c0.4,0.59,1.06,0.94,1.77,0.94h15.99c1.28,0,2.03-1.44,1.29-2.48L769.57,420.57z"/>
			</g>
		</g>
	</g>
</g>
<g>
	<g>
		<linearGradient id="SVGID_3_" gradientUnits="userSpaceOnUse" x1="420.7415" y1="109.0426" x2="593.3904" y2="109.0426">
			<stop  offset="0" style="stop-color:#36B24A"/>
			<stop  offset="1" style="stop-color:#28AAE1"/>
		</linearGradient>
		<path class="st4" d="M581.01,7.32c-16.19-4.84-44.7,10.65-73.94,37.83c-29.24-27.18-57.76-42.67-73.94-37.83
			c-22.63,6.77-13.28,50.93,20.19,101.72c-33.47,50.79-42.82,94.95-20.19,101.72c16.19,4.84,44.7-10.65,73.94-37.83
			c29.24,27.18,57.76,42.67,73.94,37.83c22.63-6.77,13.28-50.93-20.19-101.72C594.29,58.26,603.64,14.09,581.01,7.32z
			 M546.22,161.14c-8.23,2.46-22.74-5.42-37.61-19.24c-14.88,13.82-29.38,21.71-37.61,19.24c-11.51-3.44-6.75-25.91,10.27-51.74
			C464.24,83.57,459.49,61.1,471,57.66c8.23-2.46,22.74,5.42,37.61,19.24c14.88-13.82,29.38-21.71,37.61-19.24
			c11.51,3.44,6.75,25.91-10.27,51.74C552.98,135.23,557.73,157.7,546.22,161.14z"/>
		<g>
			<g>
				<g>
					<path class="st3" d="M698.23,147.93h13.28c0.97,0,1.75-0.78,1.75-1.75V72.73c0-0.97-0.78-1.75-1.75-1.75h-13.28
						c-0.97,0-1.75,0.78-1.75,1.75v73.45C696.48,147.15,697.26,147.93,698.23,147.93z"/>
					<path class="st3" d="M704.86,43.1c-5.44,0-9.85,4.41-9.85,9.85s4.41,9.85,9.85,9.85c5.44,0,9.85-4.41,9.85-9.85
						S710.31,43.1,704.86,43.1z"/>
				</g>
				<path class="st3" d="M650.84,71c-8.66-0.21-14.15,2.29-20.52,7.31l0.01-2.71c0-1.26-1.19-2.95-2.45-2.95l-14.61-0.11
					c-0.97-0.01-1.76,0.78-1.76,1.75v103.69c0,0.97,0.78,1.75,1.75,1.75h15.33c0.97,0,1.75-0.78,1.75-1.75l-0.01-39.03
					c6.27,4.88,13.65,7.85,22.03,7.27c20.49-1.42,32.69-16.43,33.11-37.54C685.9,87.36,671.04,71.49,650.84,71z M647.58,129.75
					c-5.43,0.12-11.07-2.99-14.34-5.19c-1.56-1.05-2.8-3.45-2.81-5.33c-0.02-5.45-0.07-16.38-0.09-21.52
					c-0.01-1.67,0.99-3.9,2.26-4.99c2.97-2.54,8.77-6.11,17.67-4.42c9.87,1.88,17.55,11.26,17.34,20.99
					C667.36,121.48,660.34,129.47,647.58,129.75z"/>
				<path class="st3" d="M769.57,107.21c-0.25-0.36-0.25-0.94,0.01-1.29l23.61-32.42c0.76-1.04,0.01-2.51-1.27-2.51H776.7
					c-0.61,0-1.4,0.41-1.75,0.91l-14.2,20.21c-0.98,1.4-2.57,1.38-3.52-0.04L743.7,71.93c-0.35-0.52-1.15-0.95-1.78-0.95h-16.07
					c-1.29,0-2.04,1.46-1.28,2.5c5.32,7.33,20.67,28.48,23.51,32.45c0.25,0.35,0.25,0.91,0.01,1.26l-26.01,38.28
					c-0.71,1.05,0.04,2.46,1.3,2.46h15.59c0.72,0,1.39-0.36,1.79-0.96l16.3-24.79c0.97-1.47,2.57-1.48,3.56-0.03L777.45,147
					c0.4,0.59,1.06,0.94,1.77,0.94h15.99c1.28,0,2.03-1.44,1.29-2.48L769.57,107.21z"/>
			</g>
		</g>
	</g>
</g>
</svg>
