<?xml version="1.0" encoding="utf-8"?>
<!-- Generator: Adobe Illustrator 23.0.2, SVG Export Plug-In . SVG Version: 6.00 Build 0)  -->
<svg version="1.1" id="Layer_1" xmlns="http://www.w3.org/2000/svg" xmlns:xlink="http://www.w3.org/1999/xlink" x="0px" y="0px"
	 viewBox="0 0 18.2 18.9" style="enable-background:new 0 0 18.2 18.9;" xml:space="preserve">
<style type="text/css">
	.st0{fill:#FFFFFF;}
	.st1{fill:#3C3D3B;}
	.st2{fill:none;}
	.st3{font-family:'HelveticaNeue-Bold';}
	.st4{font-size:4px;}
</style>
<g>
	<path class="st0" d="M9.1,0.4c-3.8,0-6.9,2.4-6.9,5.3c0,1.6,0.7,2.9,2.2,3.9c0,0,0.1,0.1,0.1,0.1c0.1,0.4,0.3,0.8,0.4,1.3
		c0.2,0.5,0.3,1.1,0.5,1.5c-0.1-0.1,0.6-0.5,0.7-0.6c0.2-0.1,0.4-0.3,0.7-0.4c0.2-0.1,0.4-0.2,0.7-0.3c0.1,0,0.2-0.1,0.4-0.1
		c0.5,0,0.9,0.1,1.3,0.1c0.4,0,0.8-0.1,1.2-0.1c0.7-0.1,1.5-0.4,2.1-0.7c1.2-0.6,2.3-1.5,2.8-2.7c0.3-0.6,0.4-1.2,0.4-1.8
		C15.9,2.9,12.9,0.4,9.1,0.4z"/>
	<circle class="st1" cx="6.5" cy="5.7" r="0.8"/>
	<circle class="st1" cx="9.3" cy="5.7" r="0.8"/>
	<circle class="st1" cx="12.1" cy="5.7" r="0.8"/>
</g>
<rect x="1.4" y="14.4" class="st2" width="13.3" height="3.8"/>
<text transform="matrix(1.0887 0 0 1 0 18.1917)" class="st0 st3 st4">PiX Chat</text>
</svg>
