<?xml version="1.0" encoding="utf-8"?>
<!-- Generator: Adobe Illustrator 23.0.2, SVG Export Plug-In . SVG Version: 6.00 Build 0)  -->
<svg version="1.1" id="Layer_1" xmlns="http://www.w3.org/2000/svg" xmlns:xlink="http://www.w3.org/1999/xlink" x="0px" y="0px"
	 viewBox="0 0 167 167" style="enable-background:new 0 0 167 167;" xml:space="preserve">
<style type="text/css">
	.st0{fill:#3C3D3B;}
</style>
<path class="st0" d="M72,1.2C33.1,1.2,1.6,32.7,1.6,71.6c0,38.9,31.5,70.4,70.4,70.4s70.4-31.5,70.4-70.4
	C142.3,32.7,110.8,1.2,72,1.2z M72,116.6c-24.9,0-45.1-20.2-45.1-45.1C26.8,46.6,47,26.4,72,26.4s45.1,20.2,45.1,45.1
	C117.1,96.4,96.9,116.6,72,116.6z"/>
<rect x="121.6" y="105.2" transform="matrix(0.7071 -0.7071 0.7071 0.7071 -55.7522 134.7866)" class="st0" width="26.4" height="59"/>
</svg>
