<?xml version="1.0" encoding="utf-8"?>
<!-- Generator: Adobe Illustrator 23.0.6, SVG Export Plug-In . SVG Version: 6.00 Build 0)  -->
<svg version="1.1" id="Layer_1" xmlns="http://www.w3.org/2000/svg" xmlns:xlink="http://www.w3.org/1999/xlink" x="0px" y="0px"
	 viewBox="0 0 78.2 78.2" style="enable-background:new 0 0 78.2 78.2;" xml:space="preserve">
<style type="text/css">
	.st0{fill:#E1E2E0;stroke:#2C2D2B;stroke-width:1.1374;stroke-miterlimit:10;}
	.st1{fill:#3C3D3B;stroke:#2C2D2B;stroke-width:0.2139;stroke-miterlimit:10;}
</style>
<g>
	<path class="st0" d="M72.2,77.5H2.6c-1,0-1.8-0.8-1.8-1.8v-74c0-0.5,0.4-0.9,0.9-0.9h70.5c2.9,0,5.3,2.4,5.3,5.3v66.1
		C77.5,75.2,75.2,77.5,72.2,77.5z"/>
	<path class="st1" d="M54.1,51l-6.5-6.5c1.4-2.1,2.2-4.7,2.2-7.4C49.8,29.8,44,24,36.8,24s-13.1,5.8-13.1,13.1s5.8,13.1,13.1,13.1
		c2.7,0,5.2-0.8,7.3-2.2l6.5,6.5L54.1,51z M36.8,45.5c-4.7,0-8.4-3.7-8.4-8.4s3.7-8.4,8.4-8.4s8.4,3.7,8.4,8.4S41.4,45.5,36.8,45.5z
		"/>
</g>
</svg>
