<?xml version="1.0" encoding="utf-8"?>
<!-- Generator: Adobe Illustrator 23.0.2, SVG Export Plug-In . SVG Version: 6.00 Build 0)  -->
<svg version="1.1" id="Layer_1" xmlns="http://www.w3.org/2000/svg" xmlns:xlink="http://www.w3.org/1999/xlink" x="0px" y="0px"
	 viewBox="0 0 167 167" style="enable-background:new 0 0 167 167;" xml:space="preserve">
<style type="text/css">
	.st0{fill:#3C3D3B;}
	.st1{fill:#FFFFFF;}
</style>
<path class="st0" d="M388.1,83.5H268.7c-2.4,0-4.4-2-4.4-4.4V64.9c0-2.4,2-4.4,4.4-4.4h119.4c2.4,0,4.4,2,4.4,4.4v14.2
	C392.5,81.5,390.5,83.5,388.1,83.5z"/>
<path class="st0" d="M388.8,127.7h-83.7c-2,0-3.7-1.7-3.7-3.7v-15.6c0-2,1.7-3.7,3.7-3.7h83.7c2,0,3.7,1.7,3.7,3.7V124
	C392.5,126,390.8,127.7,388.8,127.7z"/>
<path class="st0" d="M377-104.4H220c-2.8,0-5-2.3-5-5v-13c0-2.8,2.3-5,5-5h157c2.8,0,5,2.3,5,5v13
	C382.1-106.6,379.8-104.4,377-104.4z"/>
<path class="st0" d="M377.7-62.8H258.3c-2.4,0-4.4-2-4.4-4.4v-14.2c0-2.4,2-4.4,4.4-4.4h119.4c2.4,0,4.4,2,4.4,4.4v14.2
	C382.1-64.8,380.1-62.8,377.7-62.8z"/>
<path class="st0" d="M378.4-18.6h-83.7c-2,0-3.7-1.7-3.7-3.7v-15.6c0-2,1.7-3.7,3.7-3.7h83.7c2,0,3.7,1.7,3.7,3.7v15.6
	C382.1-20.2,380.4-18.6,378.4-18.6z"/>
<rect x="-17.9" y="347" transform="matrix(0.7071 -0.7071 0.7071 0.7071 -229.9695 164.5784)" class="st0" width="203.2" height="25.8"/>
<g id="j4CnAF.tif">
	
		<image style="overflow:visible;" width="580" height="386" id="Layer_0_1_" xlink:href="83AD3C9A9EB80C73.png"  transform="matrix(0.3922 0 0 0.3922 -465.21 0)">
	</image>
</g>
<g>
	<path class="st1" d="M124.9,147.3H40.7c-3.5,0-6.4-2.9-6.4-6.4V31.6h97.2v109.1C131.5,144.3,128.6,147.3,124.9,147.3z"/>
	<rect x="59.3" y="14.2" class="st1" width="50.8" height="30"/>
	<g>
		<g>
			<path class="st0" d="M144.8,28.4h-30.6v-5c0-8.9-7.3-16.2-16.2-16.2H69c-8.9,0-16.2,7.3-16.2,16.2v5H22.2c-2.3,0-4.1,1.8-4.1,4.1
				s1.8,4.1,4.1,4.1h7.4v95.9c0,12,9.8,21.8,21.8,21.8h64.2c12,0,21.8-9.8,21.8-21.8V36.5h7.4c2.3,0,4.1-1.8,4.1-4.1
				S147.1,28.4,144.8,28.4z M60.9,23.4c0-4.4,3.6-8,8-8H98c4.4,0,8,3.6,8,8v5H60.9V23.4z M129.3,132.4c0,7.5-6.1,13.7-13.7,13.7
				H51.4c-7.5,0-13.7-6.1-13.7-13.7V36.5h91.6L129.3,132.4L129.3,132.4z"/>
			<path class="st0" d="M83.5,131.4c2.3,0,4.1-1.8,4.1-4.1V55.2c0-2.3-1.8-4.1-4.1-4.1c-2.3,0-4.1,1.8-4.1,4.1v72.1
				C79.4,129.6,81.2,131.4,83.5,131.4z"/>
			<path class="st0" d="M56.9,126.9c2.3,0,4.1-1.8,4.1-4.1V59.7c0-2.3-1.8-4.1-4.1-4.1s-4.1,1.8-4.1,4.1v63.2
				C52.8,125.1,54.6,126.9,56.9,126.9z"/>
			<path class="st0" d="M110.1,126.9c2.3,0,4.1-1.8,4.1-4.1V59.7c0-2.3-1.8-4.1-4.1-4.1s-4.1,1.8-4.1,4.1v63.2
				C106.1,125.1,107.9,126.9,110.1,126.9z"/>
		</g>
	</g>
</g>
</svg>
