<?xml version="1.0" encoding="utf-8"?>
<!-- Generator: Adobe Illustrator 23.1.1, SVG Export Plug-In . SVG Version: 6.00 Build 0)  -->
<svg version="1.1" id="Layer_1" xmlns="http://www.w3.org/2000/svg" xmlns:xlink="http://www.w3.org/1999/xlink" x="0px" y="0px"
	 viewBox="0 0 304.5 113.8" style="enable-background:new 0 0 304.5 113.8;" xml:space="preserve">
<style type="text/css">
	.st0{fill:#252828;stroke:#252828;stroke-width:4;stroke-miterlimit:10;}
	.st1{fill:#252828;stroke:#252828;stroke-width:3.029;stroke-miterlimit:10;}
	.st2{fill:#252828;}
	.st3{fill:#3C3D3B;}
	.st4{fill:#662C8F;}
	.st5{fill:#293991;}
	.st6{fill:#23A8E0;}
	.st7{fill:#006A37;}
	.st8{fill:#F5EB0E;}
	.st9{fill:#F8951D;}
	.st10{fill:#C12129;}
</style>
<path class="st0" d="M111.6,82.2c-4.5,3.7-10.9,5.6-19.1,5.6H60v-78h31.2c8,0,14.2,1.8,18.6,5.3c4.4,3.6,6.6,8.6,6.6,15.2
	c0,8.5-4.1,14.4-12.2,17.5c9.4,2.6,14.1,8.8,14.1,18.8C118.3,73.3,116.1,78.5,111.6,82.2z M69,17.3v27.1h20.9
	c11.8,0,17.7-4.6,17.7-13.7c0-9-5.9-13.5-17.7-13.5L69,17.3L69,17.3z M91.6,52.1H69v28.2h22.6c11.8,0,17.7-4.6,17.7-13.9
	C109.4,56.9,103.4,52.1,91.6,52.1z"/>
<path class="st1" d="M135.2,87.7h-6.6V46h6.6V87.7z"/>
<path class="st1" d="M169.2,51.3h-12v22.8c0,5.6,2.4,8.4,7.3,8.4c1.4,0,2.9-0.3,4.5-0.8v5.7c-1.8,0.6-3.7,1-5.8,1
	c-4,0-7.1-1.2-9.3-3.5s-3.3-5.6-3.3-9.8V51.3h-8.1V46h8.1V35.3l6.6-2.3v13h12V51.3z"/>
<path class="st1" d="M197.1,51.3h-12v22.8c0,5.6,2.4,8.4,7.3,8.4c1.4,0,2.9-0.3,4.5-0.8v5.7c-1.8,0.6-3.7,1-5.8,1
	c-4,0-7.1-1.2-9.3-3.5s-3.3-5.6-3.3-9.8V51.3h-8.1V46h8.1V35.3l6.6-2.3v13h12V51.3z"/>
<path class="st1" d="M234.3,46h6.6v41.7h-6.6v-7.6c-2.5,5.5-7.2,8.2-14.1,8.2c-5.6,0-10.1-2-13.4-5.9c-3.3-3.9-5-9.1-5-15.6
	s1.7-11.7,5.1-15.8c3.4-4,7.8-6.1,13.3-6.1c6.6,0,11.3,2.7,14.1,8.2L234.3,46L234.3,46z M221.6,50.6c-4.1,0-7.3,1.4-9.5,4.3
	c-2.3,2.9-3.4,6.8-3.4,11.9s1.1,9,3.4,11.7c2.3,2.7,5.4,4.1,9.5,4.1s7.2-1.4,9.5-4.2c2.2-2.8,3.3-6.7,3.3-11.8
	C234.3,56,230.1,50.6,221.6,50.6z"/>
<path class="st1" d="M285.7,82.4c-3.4,3.9-7.9,5.9-13.5,5.9c-6.7,0-11.4-2.8-14.1-8.4v25.7h-6.6V57.8c0-3.1-0.2-7.1-0.6-11.8h6.3
	l0.6,8.1c2.6-6,7.4-9.1,14.4-9.1c5.6,0,10.1,2,13.5,6.1c3.4,4,5.1,9.3,5.1,15.8C290.8,73.3,289.1,78.5,285.7,82.4z M280.4,54.9
	c-2.3-2.9-5.4-4.3-9.4-4.3c-4.1,0-7.3,1.4-9.5,4.1c-2.3,2.7-3.4,6.7-3.4,11.9c0,5.1,1.1,9,3.4,11.8s5.4,4.2,9.5,4.2s7.2-1.4,9.5-4.1
	c2.2-2.7,3.3-6.7,3.3-11.7C283.8,61.7,282.7,57.8,280.4,54.9z"/>
<circle class="st2" cx="131.9" cy="37" r="5.7"/>
<path class="st2" d="M61.8,43c0-0.4-0.1-0.8-0.5-1c-0.3-0.2-0.6-0.2-0.9-0.2c-3.8,0-7.6,0-11.4-0.2c-0.3,0-0.5,0-0.7-0.2
	C48,41.2,48,40.8,48,40.5c-0.1-2.4-0.3-4.7-0.4-7.1c0-0.7-0.1-1.4-0.5-2s-1.2-0.9-1.8-0.4c-0.5-1.6-0.2-3.4,0.9-4.7
	c1.6,0.2,3.1,1,4.6,1.5c1.5,0.5,3.4,0.7,4.6-0.3c1.1-0.8,1.5-2.3,1.6-3.6c0.1-1.2,0-2.5-0.6-3.5c-0.5-1.1-1.6-2-2.8-2.1
	c-0.8-0.1-1.6,0.1-2.4,0.3c-1.6,0.5-3.2,1.1-4.8,1.8c-0.8-1.6-2.6-2.7-4.4-2.8c-1.8-0.1-3.6,0.9-4.6,2.5c-2.7-0.5-5.4-2.7-8-1.7
	c-1.9,0.7-3,2.9-2.9,5c0,1.9,0.9,4,2.7,4.7c2.4,0.9,4.9-1,7.4-1.9c0.2-0.1,0.5-0.1,0.7-0.1c0.3,0.1,0.5,0.4,0.6,0.7
	c0.6,1.3,0.8,2.8,0.5,4.1c-0.6-0.3-1.4,0.1-1.7,0.7c-0.3,0.6-0.3,1.3-0.3,2c-0.1,2.7-0.4,5.4-1.1,8.1c-4.4,0.1-8.7,0.1-13.1,0.2
	c-1.9,0-4.1,0.1-5.5,1.4c-1.7,1.5-1.8,4.1-1.8,6.4c0,5,0,10.1,0,15.1c0,3.7,4.3,3.1,6.9,2.8c0.9-0.1,1.9-0.3,2.5-1
	C25,66,25,65,24.9,64.1c-0.1-2.7-0.2-5.3-0.3-8c0-0.3,0-0.7,0.1-1c0.3-0.6,1-0.7,1.7-0.7c2.7-0.2,5.5-0.2,8.2-0.1
	c8.6,0.2,17.2,0.3,25.7,0.5c0.3,0,0.7,0,1-0.2c0.6-0.3,0.6-1.1,0.6-1.8c-0.1-3.1-0.1-6.3-0.2-9.4C61.8,43.3,61.8,43.1,61.8,43z"/>
<g id="qjpYeT.tif">
	
		<image style="overflow:visible;enable-background:new    ;" width="1005" height="1084" id="Layer_0_1_" xlink:href="../../../../../../bittap-docs/8044D81B7690EF50.png"  transform="matrix(0.2137 0 0 0.2137 774.626 -449.3906)">
	</image>
</g>
<path class="st3" d="M37.3,422.3l-2.3-2.5c-0.1-0.2-0.2-0.4-0.1-0.6c0.6-1.1,0.7-2.4,0-3.7c-0.3-0.7-0.9-1.3-1.7-1.6
	c-3.5-1.6-7,1.8-5.3,5.4c0.3,0.7,0.9,1.3,1.6,1.6c1.5,0.7,3,0.5,4.1-0.2c0.2-0.1,0.5-0.1,0.6,0.1l2.4,2.2c0.2,0.2,0.6,0.2,0.8-0.1
	l0,0C37.5,422.8,37.5,422.5,37.3,422.3z M32.9,419.8c-2.6,1.4-5.2-1.2-3.8-3.8c0.2-0.4,0.5-0.7,0.9-0.9c2.6-1.4,5.2,1.2,3.8,3.8
	C33.6,419.3,33.3,419.6,32.9,419.8z"/>
<path class="st4" d="M16.7,75.8c0,0,1.9-4.7,3.2-4.7c1.2-0.1,2,1.3,2.1,1.5C22,72.7,16.7,75.8,16.7,75.8z"/>
<polygon class="st5" points="15.2,79 22.8,74.3 21.9,72.6 16.7,75.8 "/>
<polygon class="st6" points="22.8,74.3 23.8,76.3 13.4,82.7 14.1,81 15.2,79 "/>
<path class="st7" d="M23.8,76.3l1.2,2.4l-12.1,7c0,0,0.2-2.1,0.5-3"/>
<path class="st8" d="M25,78.7l1.3,2.5l-12.9,7c0,0-0.5-1.5-0.4-2.5L25,78.7z"/>
<path class="st9" d="M26.3,81.2c0,0,0.9,2.2,0.9,2.8l-12,6.8c0,0-1-0.7-1.8-2.6L26.3,81.2z"/>
<path class="st10" d="M27.2,84c0,0,0.7,4.9-3.7,6.8c0,0-3.9,2.4-8.3,0L27.2,84z"/>
<path class="st0" d="M270.5-232c-4.5,3.7-10.9,5.6-19.1,5.6h-32.5v-77.9h31.2c8,0,14.2,1.8,18.6,5.3c4.4,3.6,6.6,8.6,6.6,15.2
	c0,8.5-4.1,14.4-12.2,17.5c9.4,2.6,14.1,8.8,14.1,18.8C277.2-240.9,275-235.7,270.5-232z M227.9-296.9v27.1h20.9
	c11.8,0,17.7-4.6,17.7-13.7c0-9-5.9-13.5-17.7-13.5h-20.9V-296.9z M250.5-262.1h-22.6v28.2h22.6c11.8,0,17.7-4.6,17.7-13.9
	C268.2-257.3,262.3-262.1,250.5-262.1z"/>
<path class="st2" d="M219.9-270.6c0-0.6-0.5-1.1-1-1.1c0,0-12.7,0-12.8-0.4c-0.5-0.9-0.6-7.9-0.8-9.1c-0.1-0.5-0.4-0.9-0.9-0.9H203
	v-3.3c0.2-0.2,0.4-0.4,0.6-0.7c0.2-0.2,0.3-0.4,0.5-0.5c0.2,0.1,0.4,0.1,0.7,0.2c0.9,0.2,1.7,0.5,2.6,0.8c0.2,0.1,0.5,0.2,0.7,0.3
	c0.9,0.3,1.9,0.7,2.9,0.7c0.2,0,0.4,0,0.6,0c1.7-0.2,3.5-1.9,3.5-5c0-2.4-1.5-4.4-3.5-4.7c-0.2,0-0.4,0-0.6,0c-1.3,0-2.7,0.6-4,1.1
	c-0.5,0.2-1,0.4-1.4,0.6c-0.1,0-0.3,0.1-0.5,0.2c-0.3,0.1-0.8,0.3-1,0.3c-0.1,0-0.3-0.3-0.4-0.5c-0.3-0.4-0.7-1-1.3-1.3
	c-0.8-0.5-1.9-0.7-2.9-0.7c-1.1,0-2,0.3-2.8,0.7c-0.6,0.3-1,0.8-1.3,1.3c-0.1,0.1-0.2,0.3-0.3,0.4c-0.9-0.2-1.8-0.5-2.8-0.9
	c-1.3-0.5-2.6-1-4-1c-0.2,0-0.5,0-0.7,0c-1.3,0.2-2.7,1.5-3.2,2.8c-0.5,1.5-0.5,3.1,0.1,4.4s1.7,2.2,2.9,2.4c0.2,0,0.5,0.1,0.8,0.1
	c1.4,0,2.8-0.6,4-1.1c0.5-0.2,0.9-0.4,1.3-0.5c0.1,0,0.3-0.1,0.4-0.2c0.3-0.1,0.8-0.3,1-0.3c0.1,0,0.2,0.2,0.4,0.5s0.5,0.7,0.9,1
	v3.2c-0.1,0-0.2,0-0.3,0c-0.2,0-0.3,0-0.5,0s-0.3,0-0.4,0c-0.4,0.1-0.7,0.4-0.8,0.9c-0.3,2.3,0.1,5.4-0.8,7.6
	c-1.5,3.4-7.1,1.9-10.8,1.7c-5.8-0.2-10.4,1.2-10.5,6.8c-0.1,4.4-0.1,8.8,0,13.2c0.1,4.6,1.5,5.2,6.9,5.2c2,0,4-0.3,5.5-0.8
	c0.3-0.1,0.6-0.4,0.7-0.9c0.4-1.9,0.2-4.1,0.2-6c0.1-3.3-0.8-4.8,3.2-5.1c9.6-0.7,19.7,0,29.3,0C221.7-259.4,220.1-268,219.9-270.6z
	"/>
<g>
	<path class="st4" d="M105.3-272.3c0,0,2.4-5.7,3.9-5.9c1.5-0.1,2.4,1.7,2.5,1.9S105.3-272.3,105.3-272.3z"/>
	<polygon class="st5" points="103.4,-268.5 112.9,-274.3 111.8,-276.3 105.3,-272.3 	"/>
	<polygon class="st6" points="112.9,-274.3 114.1,-271.8 101.3,-263.9 102.2,-266 103.4,-268.5 	"/>
	<path class="st7" d="M114.1-271.8l1.5,3l-14.9,8.6c0,0,0.2-2.6,0.6-3.7"/>
	<path class="st8" d="M115.6-268.8l1.6,3.1l-15.9,8.6c0,0-0.6-1.8-0.5-3.1L115.6-268.8z"/>
	<path class="st9" d="M117.2-265.7c0,0,1.1,2.7,1.1,3.4l-14.8,8.4c0,0-1.3-0.9-2.2-3.3L117.2-265.7z"/>
	<path class="st10" d="M118.3-262.2c0,0,0.9,6-4.6,8.4c0,0-4.8,3-10.2,0L118.3-262.2z"/>
</g>
<path class="st8" d="M182.8-234.5L182.8-234.5c-0.4-0.9-0.8-1.6-1.2-2.4l-0.1-0.2c-0.6-1.2-1.4-2.5-2.4-4.1
	c-0.2-0.3-0.3-0.5-0.5-0.7c-0.1-0.1-0.2-0.1-0.3-0.1s-0.2,0.1-0.2,0.1c-1.7,2.5-2.9,4.6-4.1,7.1v0.1c-0.4,0.8-0.8,1.8-0.9,2.8
	c-0.1,1.3,0.4,2.7,1.4,3.7c1.1,1.2,2.3,1.7,3.8,1.7c0.2,0,0.3,0,0.5,0c1.2-0.1,2.5-0.7,3.3-1.6c0.4-0.5,1.4-1.7,1.4-3.6
	C183.6-232.6,183.1-233.7,182.8-234.5z M177.5-229.4c-0.2,0.1-0.5,0.2-0.7,0.2c-0.8,0-1.6-0.7-1.6-1.4c0-0.6,0.3-1.1,0.6-1.7
	c0.1-0.1,0.1-0.2,0.2-0.3c0.3-0.5,0.5-1,0.8-1.4c0.3,0.4,0.5,0.9,0.8,1.4c0,0.1,0.1,0.1,0.1,0.2c0.3,0.5,0.6,1.1,0.6,1.7
	C178.3-230.1,177.9-229.6,177.5-229.4z"/>
</svg>
