<?xml version="1.0" encoding="utf-8"?>
<!-- Generator: Adobe Illustrator 22.1.0, SVG Export Plug-In . SVG Version: 6.00 Build 0)  -->
<svg version="1.1" id="Layer_1" xmlns="http://www.w3.org/2000/svg" xmlns:xlink="http://www.w3.org/1999/xlink" x="0px" y="0px"
	 viewBox="0 0 172.9 167" style="enable-background:new 0 0 172.9 167;" xml:space="preserve">
<style type="text/css">
	.st0{fill:#3C3D3B;}
	.st1{fill:#FFFFFF;}
	.st2{font-family:'HelveticaNeue-Bold';}
	.st3{font-size:30px;}
	.st4{fill:#F7F7F7;stroke:#3C3D3B;stroke-width:1.8022;stroke-miterlimit:10;}
	.st5{fill:#FFFFFF;stroke:#3C3D3B;stroke-width:1.9197;stroke-miterlimit:10;}
</style>
<g>
	<g>
		<path class="st0" d="M108.1-95.8c-6.4,7.6-13.5,11-17.6,11c-3.3,0-5.1-3-3.5-10c1.9-8,4.2-16.7,5.7-23.4c0.7-2.9,0.6-3.8-0.3-3.8
			c-1,0-3.3,1.4-5.5,3.3l-1.5-3.2c6.7-6.6,13.8-9.9,17.5-9.9c3.4,0,4.2,3.1,2,12.5c-1.5,6.2-3.7,14.9-5.2,21.1
			c-0.7,2.5-0.7,3.9,0.1,3.9s3.3-1.4,6.5-4.7L108.1-95.8z M109.8-146.1c0,4-3,7.8-7.4,7.8c-3.6,0-6.1-2.3-6.1-6.2
			c0-3.4,2.7-7.7,7.8-7.7C108-152.2,109.8-149.4,109.8-146.1z"/>
	</g>
</g>
<text transform="matrix(1 0 0 1 17.2062 162.4429)" class="st1 st2 st3">Duplicate </text>
<g>
	<g>
		<path class="st4" d="M113.9,130.4H39.4c-1.7,0-3.2-1.7-3.2-3.6V21.3c0-2,1.4-3.6,3.2-3.6h60.5l17.3,21.8v87.3
			C117.2,128.8,115.7,130.4,113.9,130.4z"/>
		<path class="st5" d="M133,124.4H50.5c-1.9,0-3.5-1.7-3.5-3.7v-108c0-2,1.6-3.7,3.5-3.7h67l19.1,22.3v89.4
			C136.6,122.8,135,124.4,133,124.4z"/>
	</g>
	<polygon class="st5" points="118.1,32.3 118.6,11.1 135.6,31.2 	"/>
</g>
</svg>
