<?xml version="1.0" encoding="utf-8"?>
<!-- Generator: Adobe Illustrator 23.0.3, SVG Export Plug-In . SVG Version: 6.00 Build 0)  -->
<svg version="1.1" id="Layer_1" xmlns="http://www.w3.org/2000/svg" xmlns:xlink="http://www.w3.org/1999/xlink" x="0px" y="0px"
	 viewBox="0 0 193.6 167" style="enable-background:new 0 0 193.6 167;" xml:space="preserve">
<style type="text/css">
	.st0{fill:#5C9CD6;stroke:#3C3D3B;stroke-width:0.55;stroke-miterlimit:10;}
	.st1{fill:#37BCDB;stroke:#3C3D3B;stroke-width:0.55;stroke-miterlimit:10;}
	.st2{fill:#70E073;stroke:#3C3D3B;stroke-width:0.55;stroke-miterlimit:10;}
	.st3{fill:#F7DFC4;stroke:#3C3D3B;stroke-width:0.55;stroke-miterlimit:10;}
</style>
<g>
	<circle class="st0" cx="100.1" cy="57.9" r="41.4"/>
	<g>
		<path class="st1" d="M80,92.6C80,92.6,80,92.7,80,92.6c0,0.1,0.1,0.1,0.2,0.1L80,92.6z"/>
		<path class="st2" d="M77.4,34.2L77.3,34c0.7-0.1,0.7-0.6,1.3-0.8c0.6-0.2,0.4,0,1,0c0.5,0,0.8,0.3,1.3,0.1
			c-0.1,0.2-0.3,0.4-0.6,0.6c-0.4,0.3-0.9,0.6-1.4,0.8C78.3,34.8,77.7,34.7,77.4,34.2z"/>
		<path class="st2" d="M85.7,71.2c0,0.4-0.2,0.7-0.4,1c-0.8,1.4-1.3,2.9-1.4,4.5c-0.1,1.5,0,3.4-1.4,4.2c-0.8,0.4-1.8,0.3-2.3,1.1
			c-0.2,0.2-0.2,0.5-0.3,0.7c-0.3,1.2-0.7,2.4-1,3.6c-0.4,0-0.9-0.1-1.3-0.1c0.5,0.2,0.8,0.8,0.5,1.3c-0.5-0.3-1.1,0-1.4,0.5
			s-0.2,1.1-0.1,1.6c0.4,1.6,1.8,2.8,3.3,3.2c-0.3,0.5-1.1,0.3-1.6-0.1c-3.6-2.5-6.4-6.2-7.6-10.4c-0.4-1.5-0.7-3.1-1.6-4.3
			c-0.7-1.1-1.8-1.9-2.5-2.9c-1-1.5-1.2-3.6-2.4-5c-0.7-0.8-1.7-1.8-1.1-2.7c0.2-0.4,0.7-0.7,0.5-1.1c-0.1-0.1-0.2-0.2-0.3-0.3
			c-0.4-0.4-0.1-1.1,0.1-1.6c0.3-0.9,0.3-2,0.2-3c-1-0.9-1.8-2-2.3-3.2c-0.3-0.7-0.7-1.7-1.5-1.7c-0.2-0.6-0.4-1.2-0.6-1.7
			c-0.1,0.2-0.3,0.3-0.5,0.4c0.6-9.5,4.5-18.1,10.4-24.8c0.1-0.1,0.3-0.1,0.4-0.2c1.4-0.8,2.5-2.1,3.9-3c0.3-0.2,0.6-0.4,0.9-0.3
			c0.3,0,0.7,0.4,0.5,0.7c0,0.1-0.2,0.2-0.3,0.3c-1.6,1.4-3.4,2.6-5.2,3.5c-0.2,0.1-0.5,0.2-0.6,0.5c-0.2,0.4,0.1,0.9,0.5,1
			s0.9,0.1,1.3,0c-0.3,0.5-0.5,1.2-0.3,1.7c0.4,0,0.5-0.5,0.6-0.9c0.5-1.5,2.8-2,2.6-3.6c0.6,0.3,1.3-0.4,1.6-1
			c0.4-0.6,1.2-1.2,1.7-0.7c0,0.3,0.1,0.6,0.1,0.9c0.8-0.2,1.7-0.4,2.5-0.6c-0.5,0.3-0.6,1-0.4,1.5c0.3,0.5,0.9,0.8,1.5,0.6
			c0,0.4-0.4,0.8-0.8,1c-0.9,0.7-1.9,1.4-2.9,1.7l0.2,0.5h-0.1c-0.7,0.1-1.4-0.4-2.1-0.3c-0.4,0.1-1,0.1-1.2,0.5
			c0,0.1-0.2,0.8-0.1,0.8c0.4-0.2,0.8-0.5,1.2-0.7c0.1,0.3,0.1,0.7,0.1,1c0.5,0,1,0.1,1.4,0.3c-0.4,1-1.6,1.7-2.7,1.6
			c0-0.3,0-0.7,0-1c-0.9-0.1-1.7,0.7-2.1,1.5c-0.5,0.8-0.8,1.7-1.6,2.2c-0.5,0.3-1,0.4-1.5,0.7s-1,0.8-0.9,1.3
			c0,0.3,0.2,0.5,0.2,0.8c0,0.5-0.6,0.7-1,1.1c-0.7,0.6-0.8,1.6-1.6,2.1c-0.5,0.4-1.2,0.4-1.8,0.5c-0.6,0.2-1.2,0.8-1,1.4
			c-0.3,0.1-0.7-0.1-0.7-0.4c-1.1,2.1-1.8,4.4-2.1,6.8c0.5,0.4,1.1-0.5,1.2-1.1c0.1-0.6,0.7-1.5,1.2-1.1c-0.1,0.9-0.2,1.8-0.4,2.8
			c0,0.2,0,0.4,0,0.5c0.1,0.2,0.3,0.3,0.5,0.4c0.5,0.4,0.4,1.1,0.4,1.8c0,0.8,0.3,1.5,0.7,2.2c0-0.1-0.1-0.3-0.1-0.4
			c0.7,0.1,1.5-0.1,2-0.6c0.3-0.3,0.5-0.6,0.9-0.7c0.4-0.1,0.8,0,1.2,0.1c1.2,0.3,2.5,0.7,3.3,1.6c0.4,0.5,0.7,1.1,1.1,1.5
			c1.1,0.9,2.9,0.5,3.9,1.5c0.8,0.8,0.6,0.8,0.4,1.9c-0.5-0.3-1.1,0.9-0.7,1.5c0.3-0.3,0.4,0.2,0.9,0.2c0.4,0,0.8,0.6,0.5,0.9
			c0.7-1,2.6-0.6,2.9,0.6c1.1,0.1,2.1,0.1,3.2,0.2C82.5,69.5,85.7,69.6,85.7,71.2z"/>
		<path class="st2" d="M79.3,27.8c-0.4,0.2-1,0-1.1-0.5c-0.2-0.4,0.1-1,0.6-1.1c0.3-0.1,0.7,0,0.7-0.3c0-0.1,0-0.2,0-0.3
			c0-0.5,0.4-0.9,0.9-1.1c0.5-0.1,1,0,1.5,0.1c0.2,0.4,0.2,0.8,0.1,1.2c-0.3,0-0.7,0-1,0c0,0.6,0,1.3-0.6,1.5
			c-0.5,0.2-1.1-0.2-1.5,0.2"/>
		<path class="st2" d="M84.6,22.1c0.9-0.5,1.7-1.2,2.7-1.6c1.6-0.8,3.5-0.9,5.3-0.9c4.1-0.1,8.2-0.3,12.3-0.4
			c-0.9,0.5-1.9,1-2.8,1.6c-0.8,0.4-1.7,0.9-2.5,0.6c0,0.7,0.6,1.3,1.3,1.3c-1.7,1-4,0-5.8,0.8c-0.7,0.4-1.3,1.1-2.2,1.2
			c-0.5,0.1-1-0.1-1.4,0.1c-0.8,0.2-1.3,0.9-1.9,1.5c-0.7,0.6-1.7,1.1-2.5,0.8c-0.9-0.3-1.3-1.6-0.6-2.2c0.3-0.3,0.8-0.3,1.2-0.6
			c0.4-0.2,0.7-0.8,0.4-1.1c-0.1-0.1-0.4-0.2-0.5-0.4c-0.1-0.2-0.1-0.4-0.2-0.6c-0.4-0.7-1.6,0.3-2.4,0"/>
		<path class="st2" d="M97.1,25.5c0.6-0.1,1-0.5,1.5-0.7s1.1-0.4,1.6-0.1c0.2,0.4-0.3,0.7-0.7,0.9c-0.7,0.3-1.5,0.3-2.3,0.2"/>
		<path class="st2" d="M130.5,29.6c-0.2,0-0.3,0-0.5,0c-0.7-0.2-1.2-0.7-1.8-1.1c-1.4-0.9-3.3-1-4.8-0.3c0.4-0.5,0.5-1.2,0.5-1.8
			l-0.2,0.1c-2.5-1.4-5.3-2.9-8-1.9c-0.6,0.2-1.2,0.6-1.8,0.8c-0.7,0.2-1.4,0.3-2,0.7c-0.6,0.4-0.9,1.3-0.4,1.8
			c0.4,0.4,1.1,0.3,1.7,0.4s1.2,0.6,0.9,1.1c-2.6,1.2-5.1,2.4-7.7,3.6c1.2,0.4,2,1.7,1.7,2.9c-0.9,0.2-1.7-0.4-2.6-0.4
			c-1.3-0.1-2.5,1.1-2.5,2.3c0,1.3,1.1,2.4,2.4,2.4c0.9,0,1.9-0.6,2.8-0.3c0-0.9,0.6-1.6,1.2-2.2c1.2-1.2,2.9-2.3,4.4-1.7
			c0.5,0.2,1,0.5,1.4,0.9c0.9,0.7,1.9,1.5,2.8,2.3c0.3-0.3,0.6-0.6,0.9-0.9c0.5,0.5,1,1.1,1.6,1.6c0.3-0.2,0.5-0.3,0.8-0.5
			c0.2,0.5,0.4,1,0.6,1.5c0.1-0.5,0.1-1.1,0.2-1.6c0.6,0,1.3,0,1.8-0.2c0.6-0.3,1-0.9,0.7-1.5c-0.1-0.3-0.4-0.6-0.5-0.9
			c-0.1-0.7,0.8-1.1,1.4-0.8s0.9,1,1.2,1.6c0.1-0.6,0.3-1.3,0.4-1.9c0.6,1.5,1.4,3,2.5,4.2c-1.9-0.4-3.9-0.2-5.7,0.6
			c0.6,0.8,1.6,1.3,2.5,1.2c0.4,0,0.9-0.1,1.3,0.2c0.3,0.2,0.3,0.6,0.4,0.9c0.2,0.9,0.3,1.8,0.4,2.7c-1-0.8-2.5-0.7-3.8-0.8
			c-1.3,0-2.9-0.4-3.4-1.6c-0.5,0.6-0.8,1.4-0.6,2.2c-1.4-0.3-2.9-0.9-3.3-2.2c-1.1,0.4-2.4-0.3-2.7-1.4c-0.1-0.4-0.1-0.9-0.5-1.1
			c-0.2-0.1-0.5-0.1-0.7-0.1c-2,0.2-4.1,0.5-6.1,0.7c-1.1,0.1-2.2,0.3-3.2,0.8s-1.8,1.6-1.6,2.7c-1.9,1.1-3.4,2.7-4.5,4.6
			c-0.3,0.6-0.6,1.2-0.5,1.9c0.1,0.5,0.4,0.9,0.5,1.4c0.2,0.9-0.3,1.7-0.5,2.5c-0.6,2.4,1.2,4.7,2.9,6.5c0.8,0.8,1.7,1.8,2.9,1.8
			c0.7,0,1.4-0.3,2.1-0.6c1.9-0.8,4-1.1,6.1-1c-0.5,0.4,0,1.2,0.6,1.3s1.2-0.1,1.8,0.1c1.3,0.5,1.1,2.3,0.5,3.6
			c0.3-0.1,0.6-0.1,0.9-0.2c-0.2,0.4-0.3,0.8-0.5,1.2c1.8,0.2,2.4,2.5,2,4.3c-0.4,1.7-1.4,3.3-1.5,5.1c0,1,0.3,1.9,0.6,2.8
			c0.8,2.4,1.5,4.7,2.3,7.1c2.1,0.3,3.3-2.4,5.3-3.3c0.7-0.3,1.6-0.4,2.2-0.9s0.4-1.8-0.3-1.8c1-0.1,1.8-1,1.8-2c0-0.3,0-0.5,0-0.8
			c0.1-0.4,0.3-0.7,0.5-1.1c1.5-2.1,2.5-4.6,3.4-7c0.3-0.6,0.5-1.3,0.8-1.9c1-2.4,1.9-4.8,2.9-7.2c0.4-0.9,0.7-1.9,1.1-2.8
			c-0.5,0.9-1.9,0.7-2.6,0.1c-0.8-0.6-1.2-1.6-1.8-2.4c-0.5-0.7-1.2-1.3-1.5-2.1c-0.1-0.5-0.1-1-0.2-1.5c-0.2-1.1-0.9-2-1.4-3
			s-0.7-2.2-0.1-3.1c2,3.4,3.8,7,5.4,10.6c0.2-0.6,0.6-1.1,1.1-1.3c0.4-0.2,0.8-0.3,1.2-0.5c1.1-0.5,1.8-1.6,1.8-2.8
			s-0.7-2.3-1.8-2.8c-0.5-0.2-1.1-0.3-1.6-0.6s-0.9-1-0.6-1.5c0.3-0.5,1-0.5,1.5-0.2s0.9,0.7,1.3,1c0.3,0.2,0.7,0.4,1.1,0.6
			c2,1.1,2.5,3.7,2.9,6c0.2,1.2,0.5,2.4,0.8,3.6c0-0.3,0-0.5,0-0.8C141.6,46.9,137.3,37,130.5,29.6z M134.2,43.3
			c-0.3,0-0.5-0.2-0.7-0.4c-0.4-0.3-0.7-0.6-0.8-1.1s0.1-1.1-0.2-1.6c-0.1-0.2-0.4-0.4-0.6-0.5c-0.5-0.4-0.9-1-1-1.6
			s0.1-1.3,0.6-1.4c0.3,0,0.6,0.1,0.7,0.4l-0.4,0.2c0.6,0.1,0.9,1.1,0.5,1.5c-0.1,0.1-0.2,0.1-0.2,0.2c0,0.1,0,0.1,0.1,0.2
			c0.4,0.4,1,0.6,1.5,0.9c0.5,0.3,1,0.8,1,1.4c-0.2,0.1-0.3,0.1-0.5,0.2c-0.2,0.2,0,0.5,0.2,0.7s0.4,0.4,0.4,0.6
			C134.8,43.1,134.5,43.3,134.2,43.3z"/>
		<path class="st2" d="M134.5,72.1l-0.7,0.5c0.2,0.8-0.2,1.8-1,2.1c-0.4,0.2-1,0.2-1.1,0.7c-0.1,0.4,0.2,0.7,0.2,1.1
			c0.1,0.6-0.5,1.1-1,1.6c-0.4,0.5-0.7,1.4-0.1,1.7c0.1,0.1,0.3,0.1,0.4,0.1c0.6,0.1,1.3,0.1,1.8-0.3c1.5-1,0.1-3.9,1.5-4.9
			c0.2-0.2,0.5-0.3,0.6-0.5C135.5,73.5,134.2,72.8,134.5,72.1z"/>
	</g>
</g>
<path class="st3" d="M83.1,127.7c-0.4-0.6-0.1-1.4,0.6-1.6c1.7-0.5,4.6-0.3,5.2-0.9c0.8-0.8,16.4,3.3,19.2-1
	c2.9-4.7-18-7.3-22.5-7.6c-4.6-0.3-8.8-2.5-17,0s-16,11.8-17.7,13.1s-4.4,4.1-4.4,5.5s0.3,7,18.2,8.7c12.2,1.2,10.3,0.9,14.7,0.7
	c4.4-0.1,16.4,1.8,20,1.8s5.8-2.2,9-3.6s5.6-1.4,11-4.5s17.9-11,17.9-12.6s-6.9-3.2-13.9,0.6c-7,3.8-4,1.9-15.2,4.6
	c-11.2,2.7-6.4,2.9-14.8,2.9C85.6,133.9,85,130.8,83.1,127.7z"/>
<path class="st3" d="M87,128.8c-0.4-0.7-0.1-1.7,0.7-1.9c2-0.6,5.2-1.4,6.1-1.1c1.4,0.5,19.4,4.7,22.4-1.2c3-5.9-21-8.8-26.4-9.2
	c-5.3-0.4-10.3-3-19.9,0c-9.7,3-18.7,14.2-20.7,15.8s-5.2,4.9-5.2,6.6c0,1.7,0.3,8.5,21.2,10.5c14.3,1.4,12.1,1,17.2,0.9
	c5.2-0.2,19.2,2.2,23.4,2.2s6.8-2.7,10.6-4.4c3.8-1.7,6.5-1.7,12.9-5.4s20.9-13.2,20.9-15.2s-6.2-6.1-14.3-1.5
	c-8.2,4.6-6.6,4.5-19.7,7.8s-7.4,3.5-17.3,3.5C90,136.2,89.2,132.6,87,128.8z"/>
</svg>
