<?xml version="1.0" encoding="utf-8"?>
<!-- Generator: Adobe Illustrator 23.0.3, SVG Export Plug-In . SVG Version: 6.00 Build 0)  -->
<svg version="1.1" id="Layer_1" xmlns="http://www.w3.org/2000/svg" xmlns:xlink="http://www.w3.org/1999/xlink" x="0px" y="0px"
	 viewBox="0 0 172.9 167" style="enable-background:new 0 0 172.9 167;" xml:space="preserve">
<style type="text/css">
	.st0{fill:#FFFFFF;stroke:#3C3D3B;stroke-width:1.536;stroke-miterlimit:10;}
	.st1{fill:#3C3D3B;}
	.st2{fill:none;}
	.st3{fill:#FFFFFF;}
	.st4{font-family:'HelveticaNeue-Bold';}
	.st5{font-size:30px;}
	.st6{fill:none;stroke:#3C3D3B;stroke-width:0.25;stroke-miterlimit:10;}
</style>
<circle class="st0" cx="86" cy="65.8" r="60.2"/>
<g>
	<g>
		<path class="st1" d="M95.9,89c-6.4,7.6-13.5,11-17.6,11c-3.3,0-5.1-3-3.5-10c1.9-8,4.2-16.7,5.7-23.4c0.7-2.9,0.6-3.8-0.3-3.8
			c-1,0-3.3,1.4-5.5,3.3l-1.5-3.2C79.9,56.3,87,53,90.7,53c3.4,0,4.2,3.1,2,12.5c-1.5,6.2-3.7,14.9-5.2,21.1
			c-0.7,2.5-0.7,3.9,0.1,3.9c0.8,0,3.3-1.4,6.5-4.7L95.9,89z M97.6,38.7c0,4-3,7.8-7.4,7.8c-3.6,0-6.1-2.3-6.1-6.2
			c0-3.4,2.7-7.7,7.8-7.7C95.8,32.6,97.6,35.4,97.6,38.7z"/>
	</g>
</g>
<rect x="-1" y="140.6" class="st2" width="173.9" height="34.5"/>
<text transform="matrix(1 0 0 1 3.2262 166.2606)" class="st3 st4 st5">Information</text>
<text transform="matrix(1 0 0 1 3.2262 166.2606)" class="st6 st4 st5">Information</text>
</svg>
