<?xml version="1.0" encoding="utf-8"?>
<!-- Generator: Adobe Illustrator 23.0.2, SVG Export Plug-In . SVG Version: 6.00 Build 0)  -->
<svg version="1.1" id="Layer_1" xmlns="http://www.w3.org/2000/svg" xmlns:xlink="http://www.w3.org/1999/xlink" x="0px" y="0px"
	 viewBox="0 0 167 167" style="enable-background:new 0 0 167 167;" xml:space="preserve">
<style type="text/css">
	.st0{fill:#3C3D3B;}
	.st1{fill:#333333;}
	.st2{font-family:'HelveticaNeue-Bold';}
	.st3{font-size:168.1316px;}
</style>
<path class="st0" d="M137-118.2H-20c-2.8,0-5-2.3-5-5v-13c0-2.8,2.3-5,5-5h157c2.8,0,5,2.3,5,5v13C142-120.5,139.7-118.2,137-118.2z
	"/>
<path class="st0" d="M137.6-76.6H18.2c-2.4,0-4.4-2-4.4-4.4v-14.2c0-2.4,2-4.4,4.4-4.4h119.4c2.4,0,4.4,2,4.4,4.4V-81
	C142-78.6,140-76.6,137.6-76.6z"/>
<path class="st0" d="M138.3-32.4H54.6c-2,0-3.7-1.7-3.7-3.7v-15.6c0-2,1.7-3.7,3.7-3.7h83.7c2,0,3.7,1.7,3.7,3.7v15.6
	C142-34.1,140.3-32.4,138.3-32.4z"/>
<path class="st0" d="M377-104.4H220c-2.8,0-5-2.3-5-5v-13c0-2.8,2.3-5,5-5h157c2.8,0,5,2.3,5,5v13
	C382.1-106.6,379.8-104.4,377-104.4z"/>
<path class="st0" d="M377.7-62.8H258.3c-2.4,0-4.4-2-4.4-4.4v-14.2c0-2.4,2-4.4,4.4-4.4h119.4c2.4,0,4.4,2,4.4,4.4v14.2
	C382.1-64.8,380.1-62.8,377.7-62.8z"/>
<path class="st0" d="M378.4-18.6h-83.7c-2,0-3.7-1.7-3.7-3.7v-15.6c0-2,1.7-3.7,3.7-3.7h83.7c2,0,3.7,1.7,3.7,3.7v15.6
	C382.1-20.2,380.4-18.6,378.4-18.6z"/>
<g>
	<path class="st0" d="M234-376.9c1.8,1.9,2.7,4.4,2.7,7v75.9c0,4.6,5.5,6.9,8.8,3.7l21.2-24.3c2.8-3.4,4.4-5.1,4.4-8.5v-46.8
		c0-2.6,1-5.1,2.7-7l60.8-66c4.6-4.9,1-13-5.7-13h-150c-6.7,0.1-10.2,8.1-5.7,13.1L234-376.9z"/>
</g>
<g id="Group_18" transform="translate(-20.5 -26.116)">
	<path id="Path_19" class="st1" d="M383.7,131.6V181c-0.1,3.6-3,6.5-6.6,6.6h-39.5v-39.5h-26.3v39.5h-39.5c-3.6-0.1-6.5-3-6.6-6.6
		v-49.4c0-0.1,0-0.2,0.1-0.3c0-0.1,0-0.2,0.1-0.3l59.1-48.7l59.1,48.7C383.7,131.2,383.7,131.4,383.7,131.6z M406.7,124.6l-6.4,7.6
		c-0.6,0.6-1.3,1-2.2,1.1h-0.3c-0.8,0-1.6-0.2-2.2-0.7l-71.2-59.3l-71.2,59.3c-0.7,0.5-1.6,0.8-2.5,0.7c-0.8-0.1-1.6-0.5-2.2-1.1
		l-6.4-7.6c-0.5-0.7-0.8-1.5-0.7-2.4c0-0.9,0.5-1.7,1.1-2.2l73.9-61.6c4.6-3.6,11-3.6,15.6,0l25.1,21v-20c-0.1-1.7,1.3-3.2,3-3.3
		c0.1,0,0.2,0,0.3,0h19.7c1.7-0.1,3.2,1.3,3.3,3c0,0.1,0,0.2,0,0.3v41.9l22.5,18.7c0.7,0.5,1.1,1.3,1.1,2.2
		C407.4,123,407.2,123.9,406.7,124.6L406.7,124.6z"/>
</g>
<g id="Group_25" transform="translate(-370.427 -271.328)">
	<g id="Group_20" transform="translate(370.427 271.328)">
		<ellipse id="Ellipse_2" class="st0" cx="67" cy="257.1" rx="35.6" ry="35.6"/>
		<path id="Path_14" class="st0" d="M22.7,307.8c-10.2,15.3-15.1,33.5-14,51.9c3.1,4.2,7.8,7,13,7.6c30.6,2.4,61.3,2.4,91.8,0
			c6.8-1.8,11.3-8.1,10.8-15.1c-1.9-15.9-6.6-31.2-14-45.4c-2.8-3.7-7.3-5.7-11.9-5.4c0,0-50.8-3.2-65.9,0
			C28.7,302.6,25.3,304.8,22.7,307.8z"/>
	</g>
	<g id="Group_21" transform="translate(390.993 278.547)">
		<rect id="Rectangle_4" x="113" y="252.2" class="st0" width="8.3" height="41.5"/>
		<rect id="Rectangle_5" x="96.4" y="268.8" class="st0" width="41.5" height="8.3"/>
	</g>
</g>
<text transform="matrix(1 0 0 1 35.7688 144.0359)" class="st0 st2 st3">?</text>
</svg>
