<?xml version="1.0" encoding="utf-8"?>
<!-- Generator: Adobe Illustrator 23.0.1, SVG Export Plug-In . SVG Version: 6.00 Build 0)  -->
<svg version="1.1" id="Layer_1" xmlns="http://www.w3.org/2000/svg" xmlns:xlink="http://www.w3.org/1999/xlink" x="0px" y="0px"
	 viewBox="0 0 22.22 16.07" style="enable-background:new 0 0 22.22 16.07;" xml:space="preserve">
<style type="text/css">
	.st0{fill:#FFFFFF;stroke:#070707;stroke-width:0.1824;stroke-miterlimit:10;}
</style>
<path class="st0" d="M0.8,1.33c4.81-0.05,9.62-0.01,14.43-0.02c0.49-0.06,0.88,0.47,0.69,0.92c-0.66,2.47-1.28,4.94-1.95,7.4
	c-0.07,0.38-0.46,0.52-0.8,0.5c-3.4,0-6.81,0-10.21,0c-0.35,0.02-0.73-0.18-0.79-0.56C1.54,7.15,0.94,4.71,0.32,2.29
	C0.18,1.91,0.35,1.37,0.8,1.33z M4.99,15.58c-0.79,0.17-1.64-0.39-1.82-1.18c-0.22-0.77,0.29-1.63,1.05-1.87
	c0.84-0.33,1.86,0.27,2.03,1.14C6.46,14.51,5.84,15.43,4.99,15.58z M12.55,15.6c-0.91,0.01-1.73-0.9-1.56-1.81
	c0.07-0.64,0.61-1.18,1.23-1.31c0.91-0.24,1.88,0.54,1.91,1.46C14.2,14.81,13.43,15.63,12.55,15.6z M21.53,1.73
	c-1.11,0.12-2.24-0.02-3.34,0.07c-0.9,3.2-1.76,6.39-2.64,9.6c-0.07,0.38-0.43,0.66-0.81,0.61C10.45,12,6.18,12.03,1.9,12
	c-0.83,0.02-0.86-1.31-0.02-1.33c4.16-0.04,8.32,0.02,12.47-0.02c0.95-3.22,1.76-6.49,2.69-9.73c0.07-0.27,0.33-0.49,0.62-0.46
	c1.25-0.01,2.5-0.02,3.76,0C22.06,0.53,22.15,1.55,21.53,1.73z"/>
</svg>
