<?xml version="1.0" encoding="utf-8"?>
<!-- Generator: Adobe Illustrator 23.1.1, SVG Export Plug-In . SVG Version: 6.00 Build 0)  -->
<svg version="1.1" id="Layer_1" xmlns="http://www.w3.org/2000/svg" xmlns:xlink="http://www.w3.org/1999/xlink" x="0px" y="0px"
	 viewBox="0 0 172.9 167" style="enable-background:new 0 0 172.9 167;" xml:space="preserve">
<style type="text/css">
	.st0{fill:#FFFFFF;stroke:#3C3D3B;stroke-width:1.9197;stroke-miterlimit:10;}
	.st1{fill:#3C3D3B;}
	.st2{fill:none;}
	.st3{fill:#FFFFFF;}
	.st4{font-family:'HelveticaNeue-Bold';}
	.st5{font-size:30px;}
	.st6{opacity:0;fill:none;stroke:#3C3D3B;stroke-width:0.25;stroke-miterlimit:10;enable-background:new    ;}
</style>
<path class="st0" d="M124.8,126H42.3c-1.9,0-3.5-1.7-3.5-3.7v-108c0-2,1.6-3.7,3.5-3.7h67l19.1,22.3v89.4
	C128.4,124.4,126.8,126,124.8,126z"/>
<polygon class="st1" points="118.4,91 102.5,91 102.5,75.1 95.4,75.1 95.4,91 79.6,91 79.6,98.2 95.4,98.2 95.4,114.1 102.5,114.1 
	102.5,98.2 118.4,98.2 "/>
<polygon class="st0" points="109.9,32.9 110.4,11.7 127.4,31.8 "/>
<rect x="-0.5" y="140.6" class="st2" width="173.9" height="34.5"/>
<text transform="matrix(1 0 0 1 3.9961 166.3499)" class="st3 st4 st5">New Article</text>
<text transform="matrix(1 0 0 1 3.9961 166.3499)" class="st6 st4 st5">New Article</text>
</svg>
