<?xml version="1.0" encoding="utf-8"?>
<!-- Generator: Adobe Illustrator 23.0.3, SVG Export Plug-In . SVG Version: 6.00 Build 0)  -->
<svg version="1.1" id="Layer_1" xmlns="http://www.w3.org/2000/svg" xmlns:xlink="http://www.w3.org/1999/xlink" x="0px" y="0px"
	 viewBox="0 0 226.2 234.9" style="enable-background:new 0 0 226.2 234.9;" xml:space="preserve">
<style type="text/css">
	.st0{fill:#FFFFFF;stroke:#000000;stroke-width:1.2539;stroke-miterlimit:10;}
	.st1{fill:#3C3D3B;}
	.st2{fill:none;}
	.st3{fill:#FFFFFF;}
</style>
<g>
	<path class="st0" d="M109.9,30.2C63.6,30.2,4.2,60,7,113.7c0.9,16.8,8.7,33.1,21.2,44.3c3.9,3.5,8.2,6.5,11.3,10.6
		c8.8,11.4,7.9,27.8,15.1,40.3c-3.4-5.9,27.1-15.6,30.8-16.4c14.9-3.1,30.4-2.1,45.4-4.1c29.7-4.1,58.2-22.2,70.6-49.5
		C229.7,77.1,165.9,30.2,109.9,30.2z"/>
	<circle class="st1" cx="71" cy="109.2" r="12.5"/>
	<circle class="st1" cx="113.6" cy="109.2" r="12.5"/>
	<circle class="st1" cx="155" cy="109.2" r="12.5"/>
</g>
<rect x="3.4" y="245.2" class="st2" width="13.3" height="3.8"/>
<text transform="matrix(1.0887 0 0 1 1.9492 249.0238)" class="st3" style="font-family:'HelveticaNeue'; font-size:4px;">PiX Chat</text>
<g>
	<path class="st3" d="M-34.3,207.1c-3.8,0-6.9,2.4-6.9,5.3c0,1.6,0.7,2.9,2.2,3.9l0.1,0.1c0.1,0.4,0.3,0.8,0.4,1.3
		c0.2,0.5,0.3,1.1,0.5,1.5c-0.1-0.1,0.6-0.5,0.7-0.6c0.2-0.1,0.4-0.3,0.7-0.4c0.2-0.1,0.4-0.2,0.7-0.3c0.1,0,0.2-0.1,0.4-0.1
		c0.5,0,0.9,0.1,1.3,0.1c0.4,0,0.8-0.1,1.2-0.1c0.7-0.1,1.5-0.4,2.1-0.7c1.2-0.6,2.3-1.5,2.8-2.7c0.3-0.6,0.4-1.2,0.4-1.8
		C-27.5,209.6-30.5,207.1-34.3,207.1z"/>
	<circle class="st1" cx="-36.9" cy="212.4" r="0.8"/>
	<circle class="st1" cx="-34.1" cy="212.4" r="0.8"/>
	<circle class="st1" cx="-31.3" cy="212.4" r="0.8"/>
</g>
<rect x="-42" y="221.1" class="st2" width="13.3" height="3.8"/>
<text transform="matrix(1.0887 0 0 1 -43.354 224.9388)" class="st3" style="font-family:'HelveticaNeue'; font-size:4px;">PiX Chat</text>
</svg>
