<?xml version="1.0" encoding="utf-8"?>
<!-- Generator: Adobe Illustrator 23.0.6, SVG Export Plug-In . SVG Version: 6.00 Build 0)  -->
<svg version="1.1" id="Layer_1" xmlns="http://www.w3.org/2000/svg" xmlns:xlink="http://www.w3.org/1999/xlink" x="0px" y="0px"
	 viewBox="0 0 23.4 12.8" style="enable-background:new 0 0 23.4 12.8;" xml:space="preserve">
<style type="text/css">
	.st0{fill:#3C3D3B;}
	.st1{fill:#FAFAFA;}
</style>
<g>
	<path class="st0" d="M9.1,0.4c-3.8,0-6.9,2.4-6.9,5.3c0,0.9,0.2,1.7,0.7,2.4c0.2,0.4,0.5,0.7,0.9,1c0.4,0.3,0.7,0.5,0.9,0.9
		c0.2,0.6,0.4,1.2,0.5,1.8c0.1,0.2,0.1,0.4,0.3,0.6c-0.1-0.1,1.4-0.9,1.5-1c0.6-0.3,1.1-0.3,1.7-0.3c2.5,0.2,5.6-1,6.6-3.5
		c0.3-0.6,0.4-1.2,0.4-1.8C15.9,2.9,12.9,0.4,9.1,0.4z"/>
	<circle class="st1" cx="6.5" cy="5.7" r="0.8"/>
	<circle class="st1" cx="9.3" cy="5.7" r="0.8"/>
	<circle class="st1" cx="12.1" cy="5.7" r="0.8"/>
</g>
</svg>
